<?xml version="1.0" encoding="UTF-8"?>
<svg width="906px" height="911px" viewBox="0 0 906 911" version="1.1" xmlns="http://www.w3.org/2000/svg" xmlns:xlink="http://www.w3.org/1999/xlink">
  <path d="M391.600015,3.60987717 C389.892204,3.62353991 390.51055,5.96442202 388.164008,5.33593616 C387.783488,4.56854582 387.412028,3.79432411 386.447137,3.60987717 C386.286322,-0.618739645 391.763096,-0.618739645 391.600015,3.60987717 Z M434.537651,1.01851156 C434.018966,0.522098817 430.465178,-1.00129626 430.243208,1.01851156 C425.82872,5.2289114 436.823038,7.96601286 434.537651,1.01851156 Z M477.475286,1.01851156 C476.956601,0.522098817 473.402813,-1.00129626 473.183108,1.01851156 C468.766355,5.2289114 479.760673,7.96601286 477.475286,1.01851156 Z M515.262308,3.60987717 C516.224934,3.79432411 516.598659,4.56854582 516.979179,5.33593616 C519.321191,5.96442202 518.707376,3.62353991 520.412922,3.60987717 C520.573737,-0.618739645 515.101493,-0.618739645 515.262308,3.60987717 Z M344.367937,1.88381818 C344.367937,2.45993022 344.367937,3.03604226 344.367937,3.60987717 C344.891152,3.65769675 345.382658,3.74195029 345.226373,4.47290667 C345.799418,4.47290667 346.370198,4.47290667 346.943244,4.47290667 C346.993074,3.94916845 347.074614,3.45503283 347.803944,3.60987717 C347.803944,3.03604226 347.803944,2.45993022 347.803944,1.88381818 C347.280729,1.8359986 346.786959,1.75402219 346.943244,1.01851156 C346.370198,1.01851156 345.799418,1.01851156 345.226373,1.01851156 C345.176543,1.54680402 345.099533,2.04093965 344.367937,1.88381818 Z M559.058379,1.88381818 C559.058379,2.45993022 559.058379,3.03604226 559.058379,3.60987717 C559.581595,3.65769675 560.0731,3.74195029 559.916815,4.47290667 C560.48986,4.47290667 561.060641,4.47290667 561.633686,4.47290667 C561.683516,3.94916845 561.765056,3.45503283 562.492122,3.60987717 C562.492122,3.03604226 562.492122,2.45993022 562.492122,1.88381818 C561.971171,1.8359986 561.477401,1.75402219 561.633686,1.01851156 C561.060641,1.01851156 560.48986,1.01851156 559.916815,1.01851156 C559.866985,1.54680402 559.789975,2.04093965 559.058379,1.88381818 Z M416.503708,23.4663869 C415.971433,19.1034199 412.33384,16.9560932 407.919352,19.1489623 C395.427868,25.3563988 418.331564,38.3519379 416.503708,23.4663869 Z M459.441344,20.8795756 C458.218243,18.9075873 452.750529,16.7215496 449.998552,19.1489623 C438.349649,28.1367656 463.520611,37.8600794 459.441344,20.8795756 Z M502.381244,23.4663869 C501.876149,19.0396605 498.501296,17.7599175 494.653058,19.1489623 C480.646289,24.2064518 504.120765,38.7868683 502.381244,23.4663869 Z M372.707637,24.3294164 C372.707637,19.6339895 369.42565,18.4954281 365.840152,20.0119918 C355.058745,24.5707914 372.707637,36.2273824 372.707637,24.3294164 Z M534.154686,25.1947231 C535.375522,26.8433599 536.807003,28.2825014 538.446865,29.5121477 C541.948557,29.0020722 543.955348,26.9868186 544.460444,23.4686641 C542.399292,17.9990154 534.605422,18.4498857 534.154686,25.1947231 Z M321.181116,26.0577526 C322.146006,26.2376452 322.517467,27.0164212 322.897987,27.7838115 C326.401944,28.1390427 328.318136,26.9002879 328.050865,23.4663869 C327.131275,19.2901439 319.570699,20.3945484 321.181116,26.0577526 Z M584.820507,22.6056346 C584.301822,22.1069447 580.74577,20.5812725 580.526064,22.6056346 C576.111576,26.8137573 587.105894,29.5508587 584.820507,22.6056346 Z M283.396359,26.0577526 C283.396359,24.9078056 283.396359,23.7533044 283.396359,22.6033574 C282.250268,22.6033574 281.104177,22.6033574 279.958086,22.6033574 C279.294441,25.5772797 280.436002,26.7272266 283.396359,26.0577526 Z M623.4637,23.4663869 C623.4637,24.0447761 623.4637,24.618611 623.4637,25.1947231 C623.98918,25.2425426 624.480685,25.3222419 624.326665,26.0577526 C624.897446,26.0577526 625.470491,26.0577526 626.043537,26.0577526 C626.091102,25.5317372 626.172642,25.0353245 626.901972,25.1947231 C626.901972,24.618611 626.901972,24.0447761 626.901972,23.4663869 C626.381022,23.4185674 625.887251,23.336591 626.043537,22.6033574 C625.470491,22.6033574 624.897446,22.6033574 624.326665,22.6033574 C624.27457,23.1316499 624.195295,23.6280627 623.4637,23.4663869 Z M421.654322,41.5968377 C415.316847,63.1019843 447.436835,59.0600916 442.268101,41.5968377 C440.6826,36.2410452 434.175251,34.0026336 427.670166,36.4186608 C424.582969,37.5617763 422.245487,39.6043554 421.654322,41.5968377 Z M464.596487,44.1882033 C461.923785,66.4060893 498.288386,53.888746 482.628165,38.1447197 C480.868259,36.3753954 476.766341,34.7836867 471.463972,36.4186608 C464.526272,38.5523247 464.829782,42.2389863 464.596487,44.1882033 Z M398.469765,50.2316869 C401.543373,41.0252799 393.244407,33.6906678 384.732531,37.2794131 C366.444908,44.9897505 393.165132,66.1146176 398.469765,50.2316869 Z M508.392558,48.5079051 C510.564695,59.699963 530.036914,57.4843227 527.284937,43.3251738 C526.426501,38.9121101 522.927074,34.3396477 514.401607,37.2839674 C509.572624,38.9485441 506.963342,41.1527988 508.392558,48.5079051 Z M339.217323,51.0947164 C341.341895,54.1187353 349.113115,54.72445 352.096122,51.9577459 C354.209369,49.769431 354.333944,43.9286114 352.959088,40.7338082 C346.569519,33.8660062 333.686189,40.8271703 339.217323,51.0947164 Z M568.505701,45.0512328 C568.118386,40.3535287 565.490984,36.3776725 558.199944,39.0100264 C540.478571,45.3973555 570.138767,64.8485374 568.505701,45.0512328 Z M298.85273,50.2316869 C301.344232,51.347477 304.947849,51.347477 307.439351,50.2316869 C308.553732,47.7245749 308.553732,44.1062269 307.439351,41.5968377 C301.129056,38.0240322 295.298942,43.885346 298.85273,50.2316869 Z M608.863499,45.9142623 C608.863499,41.2165582 605.586042,40.0825511 601.996015,41.5968377 C591.216872,46.1510831 608.863499,57.8122283 608.863499,45.9142623 Z M262.784844,44.1882033 C262.266159,43.6895135 258.712371,42.1661184 258.492666,44.1882033 C254.075913,48.4008803 265.067966,51.1334275 262.784844,44.1882033 Z M649.228093,44.1882033 C648.709408,43.6895135 645.15562,42.1661184 644.93365,44.1882033 C640.519162,48.4008803 651.515745,51.1334275 649.228093,44.1882033 Z M354.673694,64.0469902 C352.361128,76.4322605 367.652153,86.3923951 376.999815,76.999264 C393.799332,60.1052909 358.524197,43.4276444 354.673694,64.0469902 Z M526.426501,67.4991082 C526.426501,85.4747147 553.087835,83.8761745 552.186364,66.6338016 C551.801314,59.1853333 546.890791,53.3558992 536.729993,55.4098639 C529.826268,56.8080172 526.426501,60.5857638 526.426501,67.4991082 Z M313.45293,67.4991082 C313.45293,83.7122217 336.655607,81.5239068 335.779051,66.6338016 C335.394001,60.0620255 331.389478,54.9749335 322.039551,57.1382 C315.858362,58.5705102 313.45293,61.8176871 313.45293,67.4991082 Z M571.941708,65.7730492 C569.269006,87.9886581 605.633607,75.4713147 589.973386,59.7295656 C588.21348,57.9602413 584.113827,56.3708097 578.809193,58.0035066 C571.869228,60.1371706 572.172738,63.8238322 571.941708,65.7730492 Z M289.405408,66.6338016 C289.018093,61.9383746 286.390691,57.9625184 279.099651,60.590318 C261.378278,66.9822014 291.040739,86.4356604 289.405408,66.6338016 Z M618.313086,70.9512262 C624.847616,81.3075802 638.917806,67.1620941 628.618843,60.590318 C626.566752,61.1186105 622.387824,59.5086847 621.746829,61.4533475 C618.469371,62.4734985 617.844231,66.1647143 618.313086,70.9512262 Z M242.175595,64.0469902 C237.217506,61.0753451 232.350018,65.9711589 235.305845,70.9512262 C240.259403,73.9228713 245.131422,69.0293347 242.175595,64.0469902 Z M665.5429,70.9512262 C667.826021,70.9421177 670.451158,71.2791319 671.556479,70.0881967 C671.556479,68.3621377 671.556479,66.6338016 671.556479,64.9100197 C667.298276,61.3167201 661.973257,66.6725127 665.5429,70.9512262 Z M194.082815,66.6338016 C194.082815,67.2121908 194.082815,67.7860257 194.082815,68.3621377 C194.603766,68.4099573 195.097536,68.4896566 194.941251,69.2251672 C195.514297,69.2251672 196.087342,69.2251672 196.658122,69.2251672 C196.707952,68.6991519 196.789492,68.2027391 197.521088,68.3621377 C197.521088,67.7860257 197.521088,67.2121908 197.521088,66.6338016 C196.995608,66.585982 196.504102,66.5040056 196.658122,65.7707721 C196.087342,65.7707721 195.514297,65.7707721 194.941251,65.7707721 C194.893686,66.2990646 194.814411,66.7954773 194.082815,66.6338016 Z M709.343501,66.6338016 C709.343501,67.2121908 709.343501,67.7860257 709.343501,68.3621377 C709.864451,68.4099573 710.360486,68.4896566 710.201936,69.2251672 C710.772717,69.2251672 711.345762,69.2251672 711.918807,69.2251672 C711.966372,68.6991519 712.047913,68.2027391 712.779508,68.3621377 C712.779508,67.7860257 712.779508,67.2121908 712.779508,66.6338016 C712.256293,66.585982 711.762522,66.5040056 711.918807,65.7707721 C711.345762,65.7707721 710.772717,65.7707721 710.201936,65.7707721 C710.152106,66.2990646 710.072831,66.7954773 709.343501,66.6338016 Z M603.712886,76.1339574 C594.519244,76.1339574 585.803518,90.0676711 594.265564,98.5772786 C611.676631,116.081521 628.489738,76.1339574 603.712886,76.1339574 Z M254.198223,97.7165262 C268.889024,107.59013 277.224229,77.5138938 259.348837,79.5860754 C249.53685,80.7246367 247.067998,92.9231829 254.198223,97.7165262 Z M639.783036,95.9904672 C653.474971,109.757951 663.950603,76.3388985 644.93365,80.4491049 C637.6109,82.0339823 634.340237,90.5208185 639.783036,95.9904672 Z M212.977459,93.3991016 C215.468961,94.5148917 219.068048,94.5148917 221.56408,93.3991016 C222.676196,90.8919895 222.676196,87.2736416 221.56408,84.7642524 C215.25152,81.1914469 209.421406,87.0527607 212.977459,93.3991016 Z M694.7433,89.081677 C694.7433,84.3839729 691.461313,83.2499658 687.871285,84.7642524 C677.094408,89.3207749 694.7433,100.979643 694.7433,89.081677 Z M176.051138,90.8122902 C176.051138,89.6600661 176.051138,88.5078421 176.051138,87.355618 C174.907312,87.355618 173.758956,87.355618 172.61513,87.355618 C171.946955,90.3318173 173.093046,91.4817643 176.051138,90.8122902 Z M734.244928,90.8122902 C734.244928,89.6600661 734.244928,88.5078421 734.244928,87.355618 C733.101102,87.355618 731.957277,87.355618 730.808921,87.355618 C730.14301,90.3318173 731.289101,91.4817643 734.244928,90.8122902 Z M227.577659,107.214405 C222.864191,128.598864 253.842618,124.996456 249.90378,107.214405 C248.388494,100.367097 242.5312,98.2357102 235.305845,100.307892 C230.232241,101.760696 227.996685,105.29479 227.577659,107.214405 Z M657.816979,106.351375 C651.479505,127.854245 683.599492,123.812352 678.426229,106.351375 C676.842993,100.995583 670.337908,98.7571713 663.828293,101.170921 C660.745626,102.31176 658.403615,104.358893 657.816979,106.351375 Z M202.669437,109.80577 C202.336481,106.453846 200.114515,103.614274 194.941251,104.623039 C176.547173,108.218616 204.458788,127.73128 202.669437,109.80577 Z M717.071686,109.80577 C716.566591,105.376767 713.191738,104.101578 709.343501,105.488346 C695.336731,110.541281 718.811207,125.121698 717.071686,109.80577 Z M150.286744,111.529552 C151.251635,111.713999 151.62536,112.488221 152.005881,113.255611 C154.347892,113.884097 153.736342,111.540938 155.444153,111.529552 C155.600438,107.303213 150.125929,107.303213 150.286744,111.529552 Z M755.714878,112.392582 C755.714878,111.242635 755.714878,110.090411 755.714878,108.938187 C754.566523,108.938187 753.422697,108.938187 752.278871,108.938187 C751.612961,111.912109 752.759051,113.062056 755.714878,112.392582 Z M205.247008,127.931667 C199.106589,152.242229 234.195994,147.341861 229.292265,127.931667 C227.611634,121.275637 220.449699,118.681995 212.977459,121.027431 C208.415746,122.455187 205.840439,125.586231 205.247008,127.931667 Z M677.565528,132.249092 C677.565528,148.576061 702.419391,147.512645 701.610785,131.386062 C701.289155,124.953191 696.684407,119.617892 687.871285,121.027431 C681.191796,122.095402 677.565528,125.613556 677.565528,132.249092 Z M167.462252,135.705764 C178.411269,150.047083 188.850662,120.549235 170.900524,126.207885 C167.618537,127.228036 166.995661,130.919252 167.462252,135.705764 Z M727.377443,136.566516 C733.033152,141.601234 742.011619,135.500823 737.683201,127.931667 C732.022962,122.899226 723.044495,128.999638 727.377443,136.566516 Z M128.819059,133.116675 C129.78395,133.296568 130.15541,134.073067 130.53593,134.842734 C132.880207,135.468943 132.264127,133.125784 133.971938,133.116675 C134.130488,128.883504 128.658244,128.883504 128.819059,133.116675 Z M777.182564,133.979705 C777.182564,132.827481 777.182564,131.675257 777.182564,130.523033 C776.038738,130.523033 774.894912,130.523033 773.748821,130.523033 C773.082911,133.499232 774.226737,134.649179 777.182564,133.979705 Z M706.763664,165.923182 C727.941429,171.360951 728.244939,135.742198 706.763664,142.612277 C695.807851,146.114492 696.849752,163.377359 706.763664,165.923182 Z M158.017195,159.877421 C163.222169,155.496237 158.982086,145.663621 152.005881,146.925147 C136.8349,149.673634 150.214264,166.442366 158.017195,159.877421 Z M750.564265,159.877421 C760.353602,162.865006 762.224493,151.912046 757.43175,147.792731 C747.637883,144.805146 745.771521,155.758106 750.564265,159.877421 Z M107.349109,154.696967 C108.314,154.881414 108.68546,155.655636 109.07051,156.425303 C111.410257,157.053789 110.798706,154.708353 112.504253,154.696967 C112.662803,150.470627 107.186029,150.470627 107.349109,154.696967 Z M798.652514,155.559997 C798.652514,154.41005 798.652514,153.257825 798.652514,152.107879 C797.508688,152.107879 796.362597,152.107879 795.216506,152.107879 C794.550596,155.079524 795.696687,156.229471 798.652514,155.559997 Z M720.505429,171.101359 C714.365009,195.409643 749.454414,190.509275 744.552951,171.101359 C742.870054,164.443052 735.710384,161.851686 728.235879,164.194846 C723.671901,165.622602 721.101124,168.753645 720.505429,171.101359 Z M124.526881,178.010149 C128.173534,189.448136 146.624237,176.88525 134.830374,168.51227 C126.137297,166.822645 122.875695,172.843358 124.526881,178.010149 Z M781.477007,174.553477 C780.942466,170.192787 777.304874,168.043183 772.888121,170.236052 C760.403432,176.445766 783.304863,189.441305 781.477007,174.553477 Z M90.1736019,177.14712 C90.1736019,175.994895 90.1736019,174.842671 90.1736019,173.690447 C89.027511,173.690447 87.8814202,173.690447 86.7375944,173.690447 C86.073949,176.666647 87.2177748,177.816594 90.1736019,177.14712 Z M816.686457,174.553477 C816.686457,175.131866 816.686457,175.707978 816.686457,176.28409 C817.207407,176.33191 817.703442,176.411609 817.544892,177.14712 C818.117938,177.14712 818.690983,177.14712 819.261764,177.14712 C819.311594,176.618827 819.393134,176.124691 820.124729,176.28409 C820.124729,175.707978 820.124729,175.131866 820.124729,174.553477 C819.599249,174.505657 819.107743,174.425958 819.261764,173.690447 C818.690983,173.690447 818.117938,173.690447 817.544892,173.690447 C817.499592,174.221017 817.418052,174.712875 816.686457,174.553477 Z M741.975379,196.1406 C740.933478,215.928796 767.737507,211.654637 766.020636,195.27757 C765.313955,188.523624 760.663907,183.01071 750.564265,185.779692 C744.26756,187.505751 742.213204,191.672885 741.975379,196.1406 Z M115.937995,193.549234 C114.710364,191.579523 109.24265,189.395762 106.490673,191.823175 C94.8440352,200.806424 120.012733,210.532015 115.937995,193.549234 Z M791.780499,196.1406 C789.583448,212.786367 815.073776,189.912669 794.360336,192.686205 C792.016059,194.282468 792.081744,193.886248 791.780499,196.1406 Z M65.2676442,196.1406 C65.2676442,196.716712 65.2676442,197.290547 65.2676442,197.866659 C65.7931246,197.916755 66.2846299,197.998732 66.1260798,198.731965 C66.6991252,198.731965 67.2721706,198.731965 67.847481,198.731965 C67.8950461,198.20595 67.9743211,197.709537 68.7059166,197.866659 C68.7059166,197.290547 68.7059166,196.716712 68.7059166,196.1406 C68.1804363,196.09278 67.6889309,196.008527 67.847481,195.27757 C67.2721706,195.27757 66.6991252,195.27757 66.1260798,195.27757 C66.0807798,195.801309 66.0015047,196.299998 65.2676442,196.1406 Z M119.371738,214.268773 C113.229053,238.579335 148.320723,233.681244 143.416995,214.268773 C141.734098,207.610467 134.576693,205.021378 127.099923,207.364537 C122.540475,208.794571 119.965168,211.92106 119.371738,214.268773 Z M764.303765,217.725446 C763.295839,236.880602 789.298057,232.084981 786.629885,215.994832 C785.728415,210.554786 781.619702,205.424429 772.029685,208.227567 C765.997986,209.99006 764.51894,213.603854 764.303765,217.725446 Z M83.303852,217.725446 C81.1022704,234.371212 106.594863,211.492961 85.8814238,214.268773 C83.5348822,215.867314 83.6005672,215.471094 83.303852,217.725446 Z M821.8416,215.131803 C816.885777,212.160158 812.013758,217.058249 814.969585,222.040593 C819.925409,225.009961 824.795162,220.118702 821.8416,215.131803 Z M98.7624879,239.308014 C97.7545622,258.467725 123.756781,253.66755 121.088609,237.581955 C120.187138,232.139632 116.078425,227.011552 106.490673,229.810136 C100.456709,231.570352 98.9776631,235.1887 98.7624879,239.308014 Z M786.63215,241.034073 C787.490586,254.195843 808.140606,253.073221 807.243665,239.305737 C806.881265,233.74045 803.164397,229.163433 795.218771,230.670888 C789.259552,231.807172 786.19727,234.414478 786.63215,241.034073 Z M62.6946024,241.034073 C63.7953932,245.797814 71.8882439,245.351498 71.2834885,239.305737 C70.1781677,234.546551 62.087582,234.99059 62.6946024,241.034073 Z M836.439536,241.034073 C845.902712,250.024154 841.635449,228.528116 836.439536,241.034073 Z M79.0094089,264.347255 C81.1860755,275.539313 100.651499,273.321396 97.9040523,259.164524 C97.0456167,254.75146 93.5461893,250.178998 85.0207232,253.123318 C80.1894748,254.790172 77.5824579,256.992149 79.0094089,264.347255 Z M809.818972,261.75589 C809.818972,272.777164 828.01826,273.478517 826.992214,260.89286 C826.487119,254.692255 821.861985,252.784026 816.686457,253.98407 C810.564157,255.404995 809.818972,259.018788 809.818972,261.75589 Z M48.094402,260.029831 C47.5734517,259.531141 44.0196642,258.005469 43.799959,260.029831 C39.3854709,264.240231 50.3775237,266.972778 48.094402,260.029831 Z M863.062365,263.481949 C863.062365,262.329725 863.062365,261.179778 863.062365,260.029831 C861.914009,260.029831 860.770183,260.029831 859.624092,260.029831 C858.958182,263.001476 860.102007,264.151423 863.062365,263.481949 Z M74.7149659,282.475429 C74.2914106,277.281312 69.9539325,275.181805 65.2676442,276.434223 C46.4839859,281.448447 76.3616221,302.698556 74.7149659,282.475429 Z M834.722664,287.65816 C840.378373,292.688324 849.35684,286.59019 845.026157,279.023311 C839.370448,273.988593 830.389716,280.089005 834.722664,287.65816 Z M22.3300088,282.475429 C22.3300088,283.053818 22.3300088,283.625376 22.3300088,284.203765 C22.8554892,284.251585 23.3469945,284.333561 23.1884444,285.066795 C23.7614898,285.066795 24.3345352,285.066795 24.9098456,285.066795 C24.9574106,284.540779 25.0366857,284.044367 25.7682812,284.203765 C25.7682812,283.625376 25.7682812,283.053818 25.7682812,282.475429 C25.2428008,282.42761 24.7512955,282.34791 24.9098456,281.6124 C24.3345352,281.6124 23.7614898,281.6124 23.1884444,281.6124 C23.1431444,282.138415 23.0638693,282.634828 22.3300088,282.475429 Z M75.5734015,303.197246 C74.5088508,314.680775 90.5948922,323.996484 98.7602229,313.555877 C113.188283,295.111183 77.5575429,281.792292 75.5734015,303.197246 Z M806.385229,304.923304 C806.385229,322.083701 831.259477,320.109436 830.428221,304.060275 C830.056761,296.919218 825.567528,291.581643 815.830286,293.699367 C809.175711,295.147617 806.385229,298.344697 806.385229,304.923304 Z M40.3662166,304.060275 C38.164635,320.706042 63.6572281,297.830067 42.9415234,300.603603 C40.5972467,302.20442 40.6629318,301.805924 40.3662166,304.060275 Z M857.048785,305.786334 C858.151841,310.550075 866.244692,310.103759 865.637671,304.060275 C864.534616,299.296534 856.44403,299.74285 857.048785,305.786334 Z M56.6810231,324.779814 C54.0105862,346.999977 90.375187,334.482634 74.7149659,318.738608 C72.9550597,316.969283 68.8554068,315.377575 63.550773,317.012549 C56.6130731,319.146213 56.9165833,322.830597 56.6810231,324.779814 Z M833.001263,333.414663 C846.695463,347.17987 857.171095,313.760818 838.154142,317.875578 C830.833657,319.458179 827.565259,327.945015 833.001263,333.414663 Z M26.6267168,324.779814 C26.1057665,324.283402 22.5519789,322.760006 22.3322738,324.779814 C17.9132557,328.987937 28.9098384,331.727316 26.6267168,324.779814 Z M880.235607,327.368903 C881.200497,327.55335 881.574223,328.327571 881.954743,329.094962 C884.296755,329.723448 883.682939,327.382565 885.39075,327.368903 C885.549301,323.142563 880.077057,323.142563 880.235607,327.368903 Z M37.7886447,348.956026 C38.6946454,360.004625 59.5870202,356.418157 52.3865801,343.773295 C51.2699343,341.812692 48.1442321,340.020596 43.802224,341.184206 C37.5893246,342.85106 37.5485546,346.04814 37.7886447,348.956026 Z M856.19035,352.408144 C861.846059,357.442862 870.82679,351.34245 866.498372,343.773295 C860.840398,338.738576 851.861932,344.838988 856.19035,352.408144 Z M0.86232357,347.22769 C0.86232357,347.801525 0.86232357,348.377637 0.86232357,348.956026 C1.38553894,349.003845 1.87930929,349.083545 1.72302418,349.819055 C2.29606959,349.819055 2.86684999,349.819055 3.4398954,349.819055 C3.48746043,349.29304 3.57126549,348.796627 4.298331,348.956026 C4.298331,348.377637 4.298331,347.801525 4.298331,347.22769 C3.77511563,347.17987 3.28134528,347.097894 3.4398954,346.36466 C2.86684999,346.36466 2.29606959,346.36466 1.72302418,346.36466 C1.67092914,346.892953 1.59165409,347.387088 0.86232357,347.22769 Z M67.847481,382.625562 C83.1815419,381.830846 84.0241225,354.682989 65.2676442,357.586321 C48.1306421,360.241446 54.2529414,383.329193 67.847481,382.625562 Z M828.71135,367.949506 C826.364809,387.990463 853.784918,383.666207 851.037471,367.084199 C850.129205,361.607719 846.020492,356.516073 836.439536,359.316934 C830.709082,360.988342 829.096401,364.670449 828.71135,367.949506 Z M21.4715732,373.99299 C26.9528771,374.89473 29.2450587,372.597113 28.341323,367.084199 C23.8226448,361.36179 15.7796241,369.447853 21.4715732,373.99299 Z M879.377171,371.399347 C880.342062,371.583794 880.713522,372.360293 881.096307,373.12996 C884.600265,373.485191 886.514191,372.241882 886.246921,368.812536 C885.325065,364.636293 877.766755,365.73842 879.377171,371.399347 Z M38.6448153,398.164647 C52.3412801,411.932131 62.8146475,378.513078 43.799959,382.625562 C36.4749438,384.208162 33.2088115,392.694998 38.6448153,398.164647 Z M869.071414,390.395104 C868.684099,385.695123 866.056697,381.723821 858.765657,384.351621 C841.044284,390.743504 870.706745,410.194686 869.071414,390.395104 Z M4.296066,392.98647 C4.296066,391.836523 4.296066,390.682022 4.296066,389.532075 C3.15224019,389.532075 2.00388438,389.532075 0.860058568,389.532075 C0.194148096,392.505997 1.34023891,393.655944 4.296066,392.98647 Z M902.561728,390.395104 C902.561728,390.973493 902.561728,391.545051 902.561728,392.12344 C903.087208,392.17126 903.578713,392.250959 903.420163,392.98647 C903.993209,392.98647 904.568519,392.98647 905.141564,392.98647 C905.189129,392.460455 905.268404,391.964042 906,392.12344 C906,391.545051 906,390.973493 906,390.395104 C905.47452,390.347285 904.983014,390.265308 905.141564,389.532075 C904.568519,389.532075 903.993209,389.532075 903.420163,389.532075 C903.374863,390.060367 903.295588,390.554503 902.561728,390.395104 Z M826.992214,412.84298 C826.992214,430.085353 853.605983,428.960454 852.756607,411.97995 C852.423652,405.344415 847.427058,399.924863 839.017108,400.753735 C831.436147,401.507463 826.992214,405.528862 826.992214,412.84298 Z M19.754702,417.160404 C22.2507337,418.276194 25.8498213,418.276194 28.343588,417.160404 C29.4579688,414.653292 29.4579688,411.034944 28.343588,408.525555 C22.0310286,404.95275 16.1986494,410.814063 19.754702,417.160404 Z M886.246921,409.388585 C881.291097,406.419217 876.421344,411.312753 879.377171,416.297375 C884.33526,419.26902 889.202748,414.370929 886.246921,409.388585 Z M35.2133379,435.290855 C36.0717735,448.454901 56.7217932,447.33228 55.8248525,433.564796 C55.4624523,427.999508 51.7455846,423.417937 43.802224,424.929947 C37.8407398,426.063954 34.7784576,428.671259 35.2133379,435.290855 Z M869.929849,432.699489 C869.291119,428.377511 866.477987,424.249087 858.765657,426.656006 C837.576567,433.280156 873.395302,456.049105 869.929849,432.699489 Z M0.00388796149,435.290855 C0.968778645,435.475302 1.34023891,436.249524 1.72302418,437.016914 C4.06503584,437.6454 3.4512204,435.302241 5.15676661,435.290855 C5.31758173,431.064515 -0.154662151,431.064515 0.00388796149,435.290855 Z M906,436.153885 C906,435.003938 906,433.849436 906,432.699489 C904.853909,432.699489 903.710083,432.699489 902.561728,432.699489 C901.895817,435.673412 903.039643,436.823359 906,436.153885 Z M826.992214,456.010394 C826.992214,473.986001 853.655813,472.389738 852.756607,455.147365 C852.367027,447.698897 847.456504,441.87174 837.297971,443.925704 C830.391981,445.32158 826.992214,449.101604 826.992214,456.010394 Z M30.0604593,455.147365 C29.5553639,450.722915 26.1782465,449.443173 22.3300088,450.82994 C8.32550386,455.882875 31.8022455,470.467846 30.0604593,455.147365 Z M880.235607,460.327819 C885.716911,461.234114 888.006827,458.931943 887.105357,453.421306 C882.584413,447.696619 874.541393,455.782682 880.235607,460.327819 Z M54.9664169,481.912665 C58.0377591,472.706258 49.7387932,465.371646 41.2269172,468.960391 C22.9415592,476.670728 49.6617832,497.795596 54.9664169,481.912665 Z M852.756607,478.45827 C853.624103,490.287922 870.761105,488.058619 869.929849,476.732211 C869.556124,471.629179 866.308112,467.482538 858.765657,469.823421 C854.199413,471.244345 852.412327,473.787891 852.756607,478.45827 Z M0.00388796149,478.45827 C0.968778645,478.642717 1.34023891,479.416938 1.72302418,480.186606 C4.06503584,480.815092 3.4512204,478.469655 5.15676661,478.45827 C5.31758173,474.23193 -0.154662151,474.23193 0.00388796149,478.45827 Z M906,479.321299 C906,478.171352 906,477.019128 906,475.869181 C904.853909,475.869181 903.710083,475.869181 902.561728,475.869181 C901.895817,478.840826 903.039643,479.990773 906,479.321299 Z M831.286657,508.675688 C850.047665,525.218984 862.955909,481.145274 836.439536,487.956148 C827.071489,490.36079 823.991087,502.242816 831.286657,508.675688 Z M18.8962663,498.314779 C16.6992148,514.962823 42.1895429,492.086849 21.4738382,494.862662 C19.1272965,496.458925 19.1952466,496.060428 18.8962663,498.314779 Z M878.518736,500.045393 C879.617261,504.806856 887.714642,504.362817 887.105357,498.314779 C886.006831,493.553316 877.911715,493.997355 878.518736,500.045393 Z M36.9302091,519.036596 C34.6787975,534.828442 58.2438742,531.451469 54.1079813,517.30826 C52.7376553,512.628773 47.3763965,510.904991 42.0830878,512.990835 C37.8180898,514.671352 37.1725643,517.337862 36.9302091,519.036596 Z M869.071414,519.899625 C868.647859,514.703231 864.31038,512.603724 859.624092,513.858419 C840.840434,518.87492 870.71807,540.125029 869.071414,519.899625 Z M0.86232357,522.490991 C3.55314548,522.889487 4.69470629,521.739541 4.298331,519.036596 C3.15450519,519.036596 2.00614938,519.036596 0.86232357,519.036596 C0.86232357,520.186543 0.86232357,521.338767 0.86232357,522.490991 Z M902.561728,519.899625 C902.561728,520.475737 902.561728,521.049572 902.561728,521.625684 C903.087208,521.675781 903.578713,521.757757 903.420163,522.490991 C903.993209,522.490991 904.568519,522.490991 905.141564,522.490991 C905.189129,521.964976 905.268404,521.466286 906,521.625684 C906,521.049572 906,520.475737 906,519.899625 C905.47452,519.851806 904.983014,519.767552 905.141564,519.036596 C904.568519,519.036596 903.993209,519.036596 903.420163,519.036596 C903.374863,519.562611 903.295588,520.061301 902.561728,519.899625 Z M54.9664169,541.486748 C53.9245162,561.272667 80.7262802,557.000785 79.0094089,540.619165 C78.3027284,533.867496 73.6549452,528.356859 63.553038,531.123563 C57.2563335,532.849622 55.1974471,537.014479 54.9664169,541.486748 Z M829.569786,538.030076 C823.143976,555.650451 851.993302,558.505963 851.039736,541.486748 C850.740756,536.15145 848.015959,530.964164 839.017108,531.986593 C833.372724,532.628741 830.475786,535.548012 829.569786,538.030076 Z M19.754702,543.212807 C20.8577577,547.974271 28.9506085,547.530232 28.343588,541.486748 C27.2405323,536.720731 19.1499465,537.16477 19.754702,543.212807 Z M885.388485,540.619165 C884.867535,540.120475 881.313748,538.599357 881.094042,540.619165 C876.679554,544.829564 887.671607,547.566666 885.388485,540.619165 Z M38.6448153,566.521435 C43.1181935,580.921959 60.5587059,560.366373 48.094402,557.025834 C46.8599762,556.693374 45.0910099,556.982568 42.9415234,557.888863 C39.3243158,559.412258 36.690119,560.211528 38.6448153,566.521435 Z M857.048785,568.247494 C859.544817,569.367838 863.143905,569.367838 865.637671,568.247494 C866.752052,565.742659 866.752052,562.124311 865.637671,559.614922 C859.325112,556.039839 853.492733,561.90343 857.048785,568.247494 Z M57.5394587,588.106281 C59.7161253,599.298339 79.1838141,597.080422 76.4318371,582.92355 C75.5756665,578.510486 72.076239,573.938024 63.550773,576.882343 C58.7195246,578.551474 56.1102427,580.753452 57.5394587,588.106281 Z M831.286657,585.517193 C831.286657,596.538466 849.490475,597.23982 848.464429,584.654163 C847.954804,578.453558 843.334201,576.545329 838.156407,577.745373 C832.034108,579.166297 831.286657,582.777814 831.286657,585.517193 Z M26.6267168,583.791134 C26.1057665,583.292444 22.5519789,581.766771 22.3322738,583.791134 C17.9132557,587.999256 28.9098384,590.734081 26.6267168,583.791134 Z M884.53005,587.240974 C884.53005,586.08875 884.53005,584.938803 884.53005,583.788856 C883.386224,583.788856 882.240133,583.788856 881.096307,583.788856 C880.430397,586.762779 881.574223,587.910448 884.53005,587.240974 Z M76.4318371,606.234455 C75.3899364,626.020374 102.19623,621.748492 100.479359,605.371425 C99.7726787,598.619756 95.1248954,593.106842 85.0207232,595.873546 C78.7240187,597.599605 76.6696623,601.76674 76.4318371,606.234455 Z M807.2414,607.099761 C807.2414,622.283615 830.421426,621.192874 829.567521,606.234455 C829.230036,600.293442 824.840462,595.256446 816.684192,596.736576 C810.675142,597.831872 807.2414,601.29993 807.2414,607.099761 Z M48.9528376,603.647643 C43.9970141,600.675998 39.1272607,605.571812 42.0830878,610.551879 C47.0411763,613.523524 51.9063997,608.627711 48.9528376,603.647643 Z M857.909486,608.82582 C858.872112,609.010267 859.245837,609.784489 859.626357,610.551879 C863.130315,610.90711 865.046506,609.668356 864.779236,606.234455 C863.859645,602.055935 856.29907,603.164893 857.909486,608.82582 Z M797.796343,641.632327 C812.777064,640.846719 813.660415,612.573964 794.360336,616.595363 C778.60725,619.881251 783.282213,642.395163 797.796343,641.632327 Z M72.9980947,625.227935 C71.7704638,623.260501 66.3027499,621.074463 63.550773,623.501876 C51.9063997,632.487402 77.0750976,642.210716 72.9980947,625.227935 Z M834.722664,627.819301 C832.521083,644.467344 858.013676,621.589093 837.297971,624.364905 C834.953695,625.963446 835.01938,625.567226 834.722664,627.819301 Z M79.8678446,649.404146 C78.5088436,666.364156 103.471426,656.394913 95.3287455,645.086722 C94.4703099,643.895787 91.5892279,641.841822 87.598295,642.493079 C82.3140463,643.36294 80.0875497,646.655659 79.8678446,649.404146 Z M811.535843,652.856264 C816.004691,667.256788 833.445204,646.703479 820.983165,643.358386 C819.746474,643.028203 817.977508,643.317398 815.830286,644.221415 C812.210814,645.747087 809.578882,646.546358 811.535843,652.856264 Z M47.2337014,651.993235 C47.2337014,650.843288 47.2337014,649.688787 47.2337014,648.53884 C46.0898756,648.53884 44.9437848,648.53884 43.799959,648.53884 C43.1363135,651.512762 44.2801393,652.662709 47.2337014,651.993235 Z M859.624092,649.404146 C859.624092,649.980259 859.624092,650.554093 859.624092,651.130205 C860.149573,651.178025 860.641078,651.257724 860.482528,651.993235 C861.055573,651.993235 861.630884,651.993235 862.203929,651.993235 C862.251494,651.46722 862.330769,650.970807 863.062365,651.130205 C863.062365,650.554093 863.062365,649.980259 863.062365,649.404146 C862.536884,649.35405 862.045379,649.272073 862.203929,648.53884 C861.630884,648.53884 861.055573,648.53884 860.482528,648.53884 C860.437228,649.067132 860.357953,649.563545 859.624092,649.404146 Z M100.479359,674.44111 C102.653761,685.635445 122.12145,683.417528 119.371738,669.260656 C118.513302,664.847592 115.013874,660.27513 106.488408,663.217173 C101.65716,664.888581 99.0478781,667.088281 100.479359,674.44111 Z M805.526794,670.123686 C804.883533,665.79943 802.070401,661.671006 794.360336,664.082479 C773.171246,670.702075 808.987716,693.473302 805.526794,670.123686 Z M63.553038,672.717328 C73.0162147,681.702855 68.7466867,660.209094 63.553038,672.717328 Z M837.297971,672.717328 C838.262862,672.897221 838.634322,673.67372 839.017108,674.443387 C841.359119,675.069596 840.745304,672.726437 842.45085,672.717328 C842.611665,668.484157 837.139421,668.484157 837.297971,672.717328 Z M121.088609,689.119443 C114.662799,706.739818 143.51439,709.59533 142.558559,692.573838 C142.257314,687.224877 139.534782,682.051254 130.533665,683.07596 C124.893811,683.715831 121.994609,686.637379 121.088609,689.119443 Z M766.020636,696.023679 C768.192772,707.220291 787.664991,705.000097 784.913014,690.845502 C784.054579,686.430161 780.557416,681.857699 772.029685,684.802019 C767.198437,686.471149 764.59142,688.673127 766.020636,696.023679 Z M84.1622876,694.29762 C85.2608134,699.059084 93.3581941,698.615045 92.7489087,692.571561 C91.6503829,687.80782 83.5575322,688.251859 84.1622876,694.29762 Z M814.969585,695.16065 C815.934476,695.345097 816.308201,696.121595 816.688722,696.888986 C820.192679,697.244217 822.108871,696.003185 821.8416,692.571561 C820.92201,688.390764 813.359169,689.497446 814.969585,695.16065 Z M141.700123,714.15413 C140.692198,733.31384 166.696681,728.51822 164.026244,712.428071 C163.124774,706.988025 159.016061,701.857667 149.428309,704.658528 C143.398875,706.418744 141.915299,710.032538 141.700123,714.15413 Z M743.69225,717.608525 C745.975372,729.820734 767.137282,727.589154 764.30603,712.428071 C763.415884,707.673439 759.547261,702.720697 750.56653,705.521558 C745.397796,707.133761 742.238119,709.813934 743.69225,717.608525 Z M115.07956,715.021714 C115.07956,710.321732 111.797572,709.187725 108.207545,710.704289 C97.430667,715.256257 115.07956,726.915125 115.07956,715.021714 Z M792.643465,715.884743 C794.360336,719.906142 799.51095,719.906142 801.230086,715.884743 C801.236881,709.542956 792.634405,709.542956 792.643465,715.884743 Z M170.039823,747.825943 C189.951453,753.404894 190.694373,719.166077 170.039823,726.241097 C158.162155,730.312592 163.607219,746.024739 170.039823,747.825943 Z M722.224565,734.875946 C719.551863,757.093832 755.916464,744.574212 740.258508,728.830186 C738.496336,727.065415 734.394418,725.473707 729.09205,727.104127 C722.15435,729.240068 722.45786,732.926729 722.224565,734.875946 Z M126.241487,735.738976 C124.042171,752.384743 149.532499,729.506491 128.819059,732.284581 C126.474783,733.883121 126.538203,733.486901 126.241487,735.738976 Z M772.888121,740.91943 C778.37169,741.823448 780.659341,739.523554 779.760136,734.015194 C775.241457,728.28823 767.198437,736.374293 772.888121,740.91943 Z M86.7398594,735.738976 C86.7398594,736.315088 86.7398594,736.888923 86.7398594,737.465035 C87.2608098,737.515131 87.7545801,737.597108 87.598295,738.330341 C88.1713404,738.330341 88.7421208,738.330341 89.3151663,738.330341 C89.3649963,737.804326 89.4465363,737.307913 90.1758669,737.465035 C90.1758669,736.888923 90.1758669,736.315088 90.1758669,735.738976 C89.6526515,735.688879 89.1588811,735.606903 89.3151663,734.875946 C88.7421208,734.875946 88.1713404,734.875946 87.598295,734.875946 C87.55073,735.401962 87.4669249,735.898374 86.7398594,735.738976 Z M184.640024,758.189128 C184.640024,777.193994 216.995572,769.144365 205.249273,751.280338 C203.459922,748.556899 199.065819,746.509766 193.226645,747.825943 C185.115674,749.659027 184.640024,753.757848 184.640024,758.189128 Z M711.916542,768.547759 C723.932376,767.839574 724.471446,744.608369 708.4828,748.69125 C695.816911,751.922487 700.845215,769.201294 711.916542,768.547759 Z M147.711438,757.326099 C145.512121,773.971866 171.000184,751.093614 150.286744,753.869427 C147.940203,755.46569 148.010418,755.06947 147.711438,757.326099 Z M751.4227,762.501999 C756.904004,763.408293 759.193921,761.1084 758.290185,755.595486 C753.771507,749.870799 745.726221,757.959139 751.4227,762.501999 Z M108.20528,757.326099 C108.20528,757.899934 108.20528,758.476046 108.20528,759.052158 C108.73076,759.099977 109.222265,759.179677 109.068245,759.915187 C109.639026,759.915187 110.212071,759.915187 110.785116,759.915187 C110.832682,759.386895 110.911957,758.892759 111.643552,759.052158 C111.643552,758.476046 111.643552,757.899934 111.643552,757.326099 C111.118072,757.276002 110.626566,757.194026 110.785116,756.458515 C110.212071,756.458515 109.639026,756.458515 109.068245,756.458515 C109.018415,756.986808 108.93914,757.480943 108.20528,757.326099 Z M206.96388,782.360786 C209.247001,794.572994 230.411176,792.341414 227.577659,777.182609 C226.687514,772.425699 222.818891,767.47068 213.838159,770.273818 C208.669426,771.881467 205.505219,774.566195 206.96388,782.360786 Z M680.145365,782.360786 C682.317501,793.557398 701.78972,791.33948 699.037743,777.182609 C698.179308,772.769545 694.682145,768.197082 686.154414,771.136848 C681.323166,772.808256 678.713884,775.007956 680.145365,782.360786 Z M169.176858,778.90639 C166.979806,795.552157 192.470134,772.67846 171.756695,775.451995 C169.412418,777.050535 169.475838,776.654316 169.176858,778.90639 Z M735.96633,776.319579 C731.008241,773.347934 726.138488,778.241471 729.094315,783.223815 C734.050138,786.19546 738.919892,781.299646 735.96633,776.319579 Z M129.677495,778.90639 C129.677495,779.482502 129.677495,780.056337 129.677495,780.634727 C130.20071,780.682546 130.692216,780.764523 130.53593,781.497756 C131.108976,781.497756 131.679756,781.497756 132.255067,781.497756 C132.302632,780.971741 132.384172,780.475328 133.113502,780.634727 C133.113502,780.056337 133.113502,779.482502 133.113502,778.90639 C132.590287,778.856294 132.096517,778.778872 132.255067,778.043361 C131.679756,778.043361 131.108976,778.043361 130.53593,778.043361 C130.488365,778.571653 130.40909,779.065789 129.677495,778.90639 Z M279.960351,814.30654 C291.382754,815.37451 300.653406,799.202385 290.266109,790.995635 C271.917331,776.490363 258.671601,812.309503 279.960351,814.30654 Z M612.301772,800.493513 C611.110381,822.458639 649.864558,813.234015 635.486328,793.584723 C633.805697,791.287106 628.892909,788.814151 624.3244,789.267299 C616.22249,790.071123 612.634727,794.390825 612.301772,800.493513 Z M243.03403,809.989115 C251.280901,806.240971 247.776944,791.362251 237.881152,792.721694 C222.325121,794.853081 231.509702,815.226497 243.03403,809.989115 Z M659.53385,801.356543 C659.53385,812.377817 677.735403,813.07917 676.709358,800.493513 C676.201997,794.292908 671.581394,792.382402 666.405865,793.584723 C660.283566,795.005648 659.53385,798.617164 659.53385,801.356543 Z M193.226645,805.67169 C198.707949,806.575708 200.9956,804.275814 200.096395,798.7629 C195.575452,793.040491 187.532431,801.126554 193.226645,805.67169 Z M706.763664,802.219572 C708.485065,806.240971 713.633414,806.240971 715.35255,802.219572 C715.36161,795.88234 706.759134,795.88234 706.763664,802.219572 Z M151.14518,800.493513 C151.14518,801.067348 151.14518,801.64346 151.14518,802.219572 C151.66613,802.267392 152.159901,802.347091 152.003616,803.082602 C152.576661,803.082602 153.149706,803.082602 153.720487,803.082602 C153.770317,802.554309 153.851857,802.062451 154.578923,802.219572 C154.578923,801.64346 154.578923,801.067348 154.578923,800.493513 C154.055707,800.443417 153.566467,800.36144 153.720487,799.630484 C153.149706,799.630484 152.576661,799.630484 152.003616,799.630484 C151.956051,800.154222 151.876776,800.648358 151.14518,800.493513 Z M573.658579,827.254259 C577.296172,812.389202 556.634827,803.531195 549.613322,815.169569 C538.252074,833.987711 569.375461,844.749393 573.658579,827.254259 Z M291.98298,822.939112 C291.98298,838.122966 315.163006,837.032224 314.309101,822.073805 C313.97388,816.132792 309.579777,811.095797 301.428037,812.575926 C295.416722,813.671222 291.98298,817.13928 291.98298,822.939112 Z M593.407128,821.213053 C590.738957,843.430939 627.103557,830.911318 611.443336,815.171846 C609.68343,813.402522 605.581512,811.810813 600.279143,813.441233 C593.341443,815.579451 593.644954,819.261559 593.407128,821.213053 Z M267.935458,822.073805 C267.509638,816.840977 263.174424,814.780181 258.492666,816.032599 C239.709008,821.0491 269.584379,842.299209 267.935458,822.073805 Z M639.783036,823.802141 C640.265482,828.611424 646.419491,831.749299 651.80793,828.117289 C659.26658,815.103533 638.625621,812.266238 639.783036,823.802141 Z M214.69433,826.39123 C216.972922,826.382121 219.598059,826.719135 220.703379,825.5282 C220.703379,823.802141 220.703379,822.073805 220.703379,820.350023 C216.447441,816.756724 211.120158,822.110239 214.69433,826.39123 Z M686.154414,823.802141 C695.619856,832.792222 691.348063,811.300738 686.154414,823.802141 Z M398.469765,844.523958 C398.469765,861.684354 423.348543,859.710089 422.517287,843.660928 C422.145827,836.517594 417.654329,831.182296 407.919352,833.30002 C401.260247,834.74827 398.469765,837.94535 398.469765,844.523958 Z M444.841143,854.019559 C463.599886,870.560578 476.508131,826.486869 449.996287,833.30002 C440.630505,835.704661 437.550103,847.588965 444.841143,854.019559 Z M484.347301,844.523958 C484.347301,860.846373 509.201164,859.782957 508.392558,843.660928 C508.068663,837.225779 503.463915,831.888204 494.653058,833.30002 C487.971304,834.36799 484.347301,837.883868 484.347301,844.523958 Z M357.251266,842.797899 C354.578564,865.013507 390.943165,852.496164 375.282944,836.752138 C373.523038,834.985091 369.423385,833.395659 364.118751,835.026079 C357.178786,837.159743 357.482296,840.846404 357.251266,842.797899 Z M540.166001,854.882589 C552.181834,854.174404 552.720905,830.945475 536.727728,835.026079 C524.064104,838.257316 529.092408,855.5384 540.166001,854.882589 Z M316.028237,844.523958 C316.028237,855.545231 334.227525,856.246585 333.201479,843.660928 C332.696384,837.460323 328.07578,835.552094 322.895722,836.752138 C316.773422,838.173062 316.028237,841.786856 316.028237,844.523958 Z M589.973386,841.067285 C589.117215,838.644427 585.051538,835.014693 578.809193,837.615167 C560.623495,849.674809 596.729886,860.206501 589.973386,841.067285 Z M276.524344,843.660928 C274.322762,860.306695 299.81762,837.428443 279.101916,840.204256 C276.755374,841.802796 276.823324,841.406577 276.524344,843.660928 Z M630.335715,844.523958 C630.335715,839.823976 627.053727,838.689969 623.4637,840.206533 C612.686822,844.758501 630.335715,856.419646 630.335715,844.523958 Z M241.317159,842.797899 C240.796209,842.299209 237.242421,840.773537 237.022716,842.797899 C232.603698,847.006021 243.600281,849.740846 241.317159,842.797899 Z M665.5429,845.386987 C666.50779,845.569157 666.883781,846.347933 667.264301,847.113046 C669.608577,847.743809 668.992497,845.398373 670.700308,845.386987 C670.858858,841.156093 665.384349,841.156093 665.5429,845.386987 Z M439.69053,865.243497 C439.303214,860.543516 436.675812,856.567659 429.384772,859.200013 C411.6634,865.58962 441.323596,885.043079 439.69053,865.243497 Z M482.628165,865.243497 C482.24085,860.543516 479.613448,856.567659 472.322408,859.200013 C454.601035,865.58962 484.261231,885.043079 482.628165,865.243497 Z M382.154959,868.695615 C385.649856,880.0243 404.125474,867.884959 392.458451,859.200013 C383.951105,857.483063 380.562663,863.533378 382.154959,868.695615 Z M510.97013,868.695615 C515.434448,883.096139 532.879491,862.540552 520.412922,859.200013 C519.180761,858.867553 517.411795,859.156748 515.264573,860.063043 C511.645101,861.586438 509.010904,862.387985 510.97013,868.695615 Z M340.93193,865.243497 C338.732613,881.891541 364.222941,859.013289 343.509501,861.789102 C341.165225,863.385365 341.228645,862.989145 340.93193,865.243497 Z M565.925864,866.106526 C565.925864,861.408822 562.643877,860.272538 559.058379,861.789102 C548.279236,866.345624 565.925864,878.006769 565.925864,866.106526 Z M299.711165,867.832585 C300.676056,868.014755 301.049781,868.791254 301.430302,869.558644 C304.931994,869.913875 306.848185,868.675121 306.580915,865.243497 C305.661325,861.064977 298.100749,862.171658 299.711165,867.832585 Z M600.279143,866.969556 C609.744585,875.959636 605.472792,854.468152 600.279143,866.969556 Z M261.926409,867.832585 C261.926409,866.682638 261.926409,865.528137 261.926409,864.37819 C260.782583,864.37819 259.636492,864.37819 258.492666,864.37819 C257.822226,867.352112 258.970581,868.504337 261.926409,867.832585 Z M644.93365,865.243497 C644.93365,865.819609 644.93365,866.395721 644.93365,866.969556 C645.456865,867.017375 645.950636,867.099352 645.792086,867.832585 C646.367396,867.832585 646.940441,867.832585 647.511222,867.832585 C647.558787,867.30657 647.640327,866.810157 648.369657,866.969556 C648.369657,866.395721 648.369657,865.819609 648.369657,865.243497 C647.848707,865.195677 647.352672,865.113701 647.511222,864.37819 C646.940441,864.37819 646.367396,864.37819 645.792086,864.37819 C645.746786,864.906483 645.665246,865.402895 644.93365,865.243497 Z M449.135586,888.554402 C450.856987,892.578078 456.007601,892.578078 457.724472,888.554402 C457.733532,882.217169 449.131056,882.217169 449.135586,888.554402 Z M407.919352,891.14349 C410.197944,891.134382 412.820816,891.471396 413.928401,890.280461 C413.928401,888.552125 413.928401,886.826066 413.928401,885.102284 C409.670198,881.508984 404.345179,886.864777 407.919352,891.14349 Z M493.794623,891.14349 C496.073215,891.134382 498.698351,891.471396 499.803672,890.280461 C499.803672,888.552125 499.803672,886.826066 499.803672,885.102284 C495.545469,881.508984 490.22045,886.864777 493.794623,891.14349 Z M370.130065,885.965313 C369.61138,885.466623 366.055327,883.940951 365.837887,885.965313 C361.418869,890.175713 372.415452,892.90826 370.130065,885.965313 Z M541.882872,885.965313 C541.364187,885.466623 537.808134,883.940951 537.588429,885.965313 C533.171676,890.175713 544.168259,892.90826 541.882872,885.965313 Z M326.333994,889.417431 C326.333994,888.265207 326.333994,887.11526 326.333994,885.965313 C325.187903,885.965313 324.041813,885.965313 322.895722,885.965313 C322.232076,888.936958 323.375902,890.089182 326.333994,889.417431 Z M583.962072,889.417431 C583.962072,888.265207 583.962072,887.11526 583.962072,885.965313 C582.815981,885.965313 581.672155,885.965313 580.523799,885.965313 C579.860154,888.936958 581.00851,890.089182 583.962072,889.417431 Z M430.243208,908.410912 C430.243208,908.987024 430.243208,909.563136 430.243208,910.136971 C430.766423,910.187067 431.260194,910.266766 431.103908,911 C431.676954,911 432.249999,911 432.82078,911 C432.868345,910.473985 432.949885,909.982126 433.679215,910.136971 C433.679215,909.563136 433.679215,908.987024 433.679215,908.410912 C433.156,908.363092 432.66223,908.281116 432.82078,907.547882 C432.249999,907.547882 431.676954,907.547882 431.103908,907.547882 C431.056343,908.073897 430.974803,908.57031 430.243208,908.410912 Z M473.183108,908.410912 C473.183108,908.987024 473.183108,909.563136 473.183108,910.136971 C473.704059,910.187067 474.197829,910.266766 474.041544,911 C474.614589,911 475.187635,911 475.758415,911 C475.808245,910.473985 475.88752,909.982126 476.616851,910.136971 C476.616851,909.563136 476.616851,908.987024 476.616851,908.410912 C476.093635,908.363092 475.604395,908.281116 475.758415,907.547882 C475.187635,907.547882 474.614589,907.547882 474.041544,907.547882 C473.993979,908.073897 473.912439,908.57031 473.183108,908.410912 Z M482.628165,63.1839607 C481.647419,67.6539526 483.998491,73.2738913 483.488866,74.4056213 C479.570413,70.0654255 469.083455,72.7956956 466.313358,73.5425918 C476.745956,46.6338331 429.969143,48.970161 439.69053,73.5425918 C434.913641,71.0036 428.397232,71.8780151 423.375723,73.5425918 C433.156,45.7935748 385.058691,49.7284428 398.469765,75.2686508 C385.110786,67.7154349 371.099486,77.7324975 371.849201,92.5383492 C368.256909,90.5914093 364.936417,92.6931936 360.682744,92.5383492 C365.946607,65.7297839 322.485756,71.7709904 331.484608,95.1297148 C326.483484,90.7599164 317.008983,95.8333457 314.309101,95.9927443 C325.468764,77.8030883 294.445037,67.681278 290.263844,84.7665295 C287.541312,95.8971052 299.067905,106.820463 310.877623,100.307892 C308.136971,103.596057 307.871966,109.375394 306.58318,114.120918 C303.582053,111.791421 297.987499,115.51224 296.279688,114.120918 C300.623961,85.0557241 254.302413,96.0018528 269.656859,119.301372 C255.849409,110.504847 240.721464,123.732653 244.750901,138.294852 C230.259421,134.710661 220.386279,143.115521 222.424781,159.014392 C217.256047,155.792263 208.737376,160.603823 206.966145,160.745005 C218.139398,137.308858 178.529049,133.765655 182.920888,157.288333 C183.874453,162.379979 194.703426,170.878201 203.534667,165.057875 C200.65132,168.202582 199.595829,173.182649 200.09866,179.736208 C193.6502,179.009806 189.625292,180.717648 185.500724,182.325297 C197.147363,158.265218 155.537018,155.569105 161.455467,179.736208 C163.095329,186.440057 174.479227,190.718771 181.206281,187.503473 C178.807645,190.853121 178.257249,196.049515 178.62871,202.179529 C173.142876,199.508464 167.208571,203.179186 163.172339,204.773172 C170.877874,196.122383 160.483782,184.868843 156.304854,184.051355 C139.715982,180.813287 132.488362,208.02718 151.151975,209.951349 C155.917538,210.443207 157.244829,208.721703 160.597032,208.22529 C157.133844,211.269803 157.260684,219.886435 157.163289,223.764375 C141.421528,221.858423 133.888133,232.451598 137.412475,247.07528 C120.816809,240.813193 110.028606,260.232495 119.376268,272.109967 C101.863275,257.502225 85.1928633,289.416099 103.917632,297.146931 C106.712644,298.453999 113.036528,297.545427 114.225654,298.012237 C112.280018,300.660531 114.633354,307.63308 112.506518,310.099204 C97.3174169,308.562147 91.0863975,319.936374 94.4703099,334.275416 C69.6119173,324.60903 66.0739848,368.616703 92.7534387,362.764498 C91.3649927,365.970686 92.0422282,371.255888 91.8950031,375.716772 C67.2087506,370.033073 66.7648103,410.522592 91.0365675,408.523278 C90.4929671,411.428887 92.1418883,416.543304 90.1781319,418.021157 C84.3819928,417.089813 81.956176,419.542275 78.1532383,420.612522 C84.5903729,410.240228 77.0297975,399.027676 66.9913104,399.027676 C44.8939548,399.027676 53.745581,436.021811 74.7172309,424.929947 C70.1623127,428.709971 72.8599296,441.336616 73.8587953,443.925704 C45.7818354,431.333216 49.6980232,483.347252 75.5756665,467.234332 C70.5269779,471.7863 71.6232387,483.975738 75.5756665,488.819178 C65.5756844,480.471246 53.2518107,490.01239 53.2518107,499.182363 C53.2518107,516.030794 80.5745251,518.435436 80.7285452,499.182363 C80.7602552,495.823607 78.0286633,492.603756 78.1532383,490.547514 C81.2132555,493.227687 85.6345386,494.53931 91.8927381,493.999632 C89.4488013,496.411105 92.4589885,503.964321 91.0343025,505.225847 C65.7387645,502.005995 68.9482718,541.418435 92.7511737,537.169324 C90.0127867,541.154288 93.9991896,547.896849 92.7511737,550.11932 C64.973194,543.317555 72.5881294,590.736358 97.0456167,576.021591 C88.1192454,587.78293 99.4963485,606.056839 115.07956,601.058555 C112.189417,605.813187 115.42384,612.496542 115.07956,615.734611 C112.821353,614.839701 109.808901,614.703074 106.490673,614.871581 C79.4646743,625.237043 113.439698,659.500908 123.668446,632.139002 C124.089736,628.261062 123.2313,625.66742 122.80548,622.641124 C125.548397,624.490147 130.076135,624.544798 134.830374,624.367183 C132.005917,627.393479 136.198434,634.149702 134.830374,635.59112 C104.923292,632.139002 118.318512,676.966439 139.983252,663.21945 C131.444196,676.654474 145.729561,693.074805 160.592502,685.665048 C153.342232,700.732769 167.285582,712.366589 181.204016,708.975953 C174.778207,723.449345 190.649073,734.452401 202.673967,730.560799 C197.670578,746.120378 211.915173,756.572371 225.858523,750.417309 C212.506339,776.034939 258.904896,781.103814 254.202753,754.734733 C256.232195,756.433467 261.883374,754.495635 263.64781,756.460792 C263.226519,760.338732 264.080425,762.932375 264.506245,765.958671 C253.217477,763.305823 245.208432,771.508019 245.613867,780.637004 C246.474568,800.12462 279.135891,797.034564 274.812003,775.45655 C277.783685,776.784112 282.639848,776.221663 286.834631,776.321856 C283.185714,790.813465 298.363489,799.59405 310.019188,796.178366 C302.363482,822.770605 345.532148,821.572838 340.078024,797.904425 C343.441551,799.389109 349.23769,798.088872 351.239952,798.767454 C348.96589,803.112205 352.254673,808.445226 353.819789,811.719728 C332.320393,798.603502 323.606932,837.788229 346.947774,836.756692 C356.379241,836.339979 362.64197,823.339885 358.114232,815.174123 C361.751824,819.042955 369.91036,819.225125 375.287474,816.900182 C366.406403,844.191498 411.079029,842.467716 403.629439,817.763212 C406.761936,821.012666 415.427832,818.403083 417.366674,818.628518 C410.922744,844.717513 453.210324,842.474547 447.42551,818.628518 C450.918143,820.158745 456.668982,819.491548 460.308839,818.628518 C453.81508,843.943291 496.761775,843.451433 489.506975,817.763212 C493.660988,820.231613 499.704012,819.405017 504.10491,817.763212 C496.557925,845.972208 542.073132,839.965158 531.586175,816.037153 C545.54991,822.178553 557.198813,812.152382 556.489867,797.904425 C559.835275,800.411537 565.991549,796.763586 567.656325,797.904425 C562.639347,824.501218 606.392383,819.671441 595.996025,794.45003 C610.351605,800.498068 621.452378,789.984592 620.897453,775.45655 C625.089971,778.232362 631.810231,773.812467 633.780782,774.59352 C632.890636,776.863811 632.752471,779.890107 632.922346,783.226092 C642.858909,810.68136 677.617623,776.155626 650.095589,765.958671 C646.242821,765.532849 643.660719,766.395878 640.650532,766.8217 C642.380993,763.670163 643.551999,759.953898 643.228104,754.734733 C645.998201,757.567474 652.20657,753.229555 653.533861,754.734733 C653.468176,762.167262 654.138617,765.387113 656.969869,768.547759 C676.265417,790.109834 699.357109,739.521277 663.837353,743.508518 C665.57914,741.231396 664.745619,736.362907 666.41719,734.015194 C669.735418,734.183701 672.745605,734.044797 675.003811,733.149887 C669.443232,762.401805 718.552997,751.562701 701.624375,727.106404 C715.699095,738.535282 732.378567,719.439332 724.811197,706.386864 C740.580138,716.936774 754.167882,693.30024 744.564276,683.07596 C767.191642,701.201856 780.899431,652.022838 749.712624,657.173689 C751.619756,654.775879 751.11013,648.302019 751.434025,646.815058 C756.516689,647.609774 758.550661,645.339482 762.595953,645.088999 C761.008187,646.9403 762.018378,651.408014 761.737518,654.584601 C764.851895,666.849183 786.235775,667.561923 789.218782,654.584601 C791.073819,646.507646 786.70463,639.899436 779.773726,636.45415 C776.584603,635.887146 770.935689,637.283022 770.326404,636.45415 C772.50307,633.216081 771.572155,626.084133 772.043275,623.501876 C787.800891,625.328128 794.410166,614.029046 790.935653,599.330219 C816.607182,609.804983 818.237983,564.651917 793.51549,569.97583 C794.811071,567.165861 793.907336,560.808134 794.373926,559.612645 C800.4396,560.243408 803.597012,557.952623 807.257255,556.160527 C800.33088,567.603068 810.772538,578.118821 819.277619,577.743096 C835.70794,577.016694 836.367056,550.406238 818.419183,550.114766 C815.565281,550.069224 813.88918,552.202888 810.693262,551.843102 C814.561885,548.498009 814.992236,539.699207 812.410134,534.575681 C838.271922,543.602195 839.522203,500.641999 814.127005,505.221293 C816.213071,502.270142 813.862,494.796625 814.985441,493.132048 C840.598079,497.025928 838.387437,457.914069 814.985441,461.190848 C816.278756,457.269643 815.544896,454.108997 814.985441,449.964634 C840.111103,454.676 839.610538,413.350778 814.127005,418.886463 C816.516582,416.058277 813.701185,407.553224 814.985441,405.934189 C839.395363,411.743129 838.450857,369.222418 813.268569,376.579801 C815.592461,372.360293 813.005829,362.980824 813.268569,361.038439 C842.03862,369.737047 833.540334,320.239232 808.974126,336.864504 C817.558482,325.353649 809.454307,306.922618 791.796354,310.964511 C794.392046,307.173102 791.266344,297.927984 791.796354,296.286178 C794.059091,297.183365 797.069278,297.319992 800.38524,297.149208 C827.830265,285.788643 792.607225,253.036787 783.211998,279.884064 C782.788443,283.762003 783.644613,286.353369 784.070434,289.381942 C781.445297,287.703703 777.443039,287.409954 772.903976,287.655883 C773.418131,283.106192 772.26751,280.237018 772.04554,276.429668 C800.79747,280.419187 790.460003,236.397852 767.753362,247.938309 C774.688797,233.282748 761.506488,221.498638 747.998018,224.627405 C752.004806,210.010554 741.069378,199.018883 726.530333,203.044836 C730.863281,188.238984 719.785158,177.0993 705.060383,181.45999 C709.995821,165.706855 696.697997,156.648461 683.592697,159.012114 C687.594955,144.201709 674.091016,133.553883 660.405876,139.155605 C672.009479,114.51486 627.083172,107.708541 631.205475,135.70121 C629.364029,134.102669 624.915566,135.118266 621.758154,134.83818 C622.886124,130.502539 619.855552,125.866317 620.899718,124.477272 C644.138634,129.769305 644.63467,95.9859129 625.194161,95.9859129 C616.19984,95.9859129 608.587169,104.27464 611.454661,115.842423 C609.092265,113.251057 600.444488,114.592282 598.571332,114.116364 C601.477329,97.4364401 585.968863,91.8233327 574.526075,95.1228835 C584.349387,70.0768111 540.170531,66.4698488 546.186375,93.3945473 C542.363052,91.6980909 538.668835,91.6525485 534.163746,92.5315178 C536.419688,76.015547 519.269096,68.0296778 507.543183,76.1294032 C520.596387,57.3704665 488.070964,44.4887835 482.628165,63.1839607 Z M504.098115,78.7230459 C504.938431,81.32352 500.104917,85.6204505 501.520543,91.6753197 C497.522816,91.2677148 495.794619,90.5048787 492.077752,91.6753197 C492.825202,86.0280555 490.489986,83.4822323 489.497915,79.5860754 C492.610027,82.2548632 501.964484,82.0977417 504.098115,78.7230459 Z M402.761943,80.4491049 C404.43578,79.968632 412.680385,82.8560236 416.501443,80.4491049 C416.254558,84.516046 413.996351,86.5631793 414.784572,91.6753197 C412.693975,90.0061888 407.599987,90.8441699 405.33725,91.6753197 C405.566015,86.8432654 405.180965,82.6214799 402.761943,80.4491049 Z M447.418715,80.4491049 C450.909082,83.0427476 456.530816,82.0635849 460.302044,80.4491049 C458.881888,83.3364965 457.264677,86.0280555 457.724472,90.8122902 C454.863775,90.8122902 452.000813,90.8122902 449.135586,90.8122902 C449.901157,86.0121156 447.486665,84.4090212 447.418715,80.4491049 Z M340.075759,102.894703 C343.221846,104.438592 346.632939,104.909957 350.379251,103.757733 C349.450601,106.278507 348.456265,108.735523 348.66238,112.392582 C346.370198,112.392582 344.084812,112.392582 341.79263,112.392582 C342.404181,108.036446 340.617094,106.089506 340.075759,102.894703 Z M565.925864,102.894703 C569.178406,103.026776 564.134248,108.138917 565.925864,112.392582 C563.350557,112.392582 560.77525,112.392582 558.199944,112.392582 C557.946263,109.484696 557.767328,106.494834 556.480807,104.620762 C557.685788,102.093156 564.727678,105.429141 565.925864,102.894703 Z M385.588701,105.488346 C387.590963,105.488346 389.597754,105.488346 391.59775,105.488346 C391.6204,107.521816 390.118704,108.027338 390.739315,110.666523 C389.305569,110.666523 387.876353,110.666523 386.444872,110.666523 C387.070012,108.025061 384.963561,108.125254 385.588701,105.488346 Z M515.262308,105.488346 C517.26457,105.488346 519.269096,105.488346 521.271357,105.488346 C521.697178,109.368563 520.383477,111.504504 516.120744,110.666523 C516.138864,108.633052 514.641698,108.125254 515.262308,105.488346 Z M429.384772,107.214405 C429.242077,105.340333 432.431199,106.82274 433.679215,106.351375 C433.679215,107.78824 433.679215,109.229658 433.679215,110.6688 C432.535389,110.6688 431.387034,110.6688 430.243208,110.6688 C430.172993,109.300249 430.657703,107.373803 429.384772,107.214405 Z M473.183108,106.351375 C474.614589,106.351375 476.04607,106.351375 477.475286,106.351375 C477.590801,109.341237 476.736896,111.363322 473.183108,110.6688 C473.183108,109.229658 473.183108,107.78824 473.183108,106.351375 Z M273.090601,123.618797 C274.993203,123.174758 280.266127,126.738455 285.971666,125.344856 C285.015835,127.836028 284.42467,130.698371 284.254794,133.979705 C280.596817,133.467352 278.57417,134.596805 275.665908,134.842734 C275.903733,129.997017 275.756508,125.540688 273.090601,123.618797 Z M580.526064,127.070915 C582.532856,127.070915 584.535117,127.070915 586.539644,127.070915 C585.547573,128.091066 585.565693,130.122259 585.678943,132.249092 C583.962072,132.249092 582.245201,132.249092 580.526064,132.249092 C580.526064,130.523033 580.526064,128.796974 580.526064,127.070915 Z M321.181116,127.931667 C322.897987,127.931667 324.619388,127.931667 326.333994,127.931667 C326.333994,129.373086 326.333994,130.812227 326.333994,132.249092 C324.902513,132.249092 323.468767,132.249092 322.039551,132.249092 C322.390626,130.172356 320.469905,130.377297 321.181116,127.931667 Z M652.6641,146.062118 C654.469307,148.218553 650.668634,152.080553 651.805665,156.425303 C650.376449,154.97933 646.761506,155.737612 644.075214,155.559997 C643.554264,153.496923 645.15562,149.297909 643.216779,148.655761 C645.20998,146.629121 651.40476,148.826545 652.6641,146.062118 Z M254.198223,146.925147 C255.822229,148.459928 259.869787,147.55591 262.782579,147.792731 C262.746339,150.632303 261.332978,152.089662 261.924144,155.559997 C259.634227,155.559997 257.34431,155.559997 255.056659,155.559997 C255.226534,152.226289 255.086104,149.199993 254.198223,146.925147 Z M603.712886,150.38182 C604.571321,150.38182 605.432022,150.38182 606.290458,150.38182 C606.290458,151.534044 606.290458,152.686268 606.290458,153.836215 C603.422966,154.703798 603.475061,152.636171 603.712886,150.38182 Z M674.131786,169.3753 C672.695775,170.80761 673.45002,174.446452 673.27335,177.14712 C670.983433,177.14712 668.693517,177.14712 666.405865,177.14712 C665.89171,175.359578 667.468151,171.474807 665.5429,171.103636 C667.649351,169.764688 671.135189,169.817062 674.131786,169.3753 Z M233.586708,171.101359 C234.225439,169.154419 238.402102,170.764345 240.458723,170.236052 C240.458723,172.253583 240.458723,174.268836 240.458723,176.281813 C238.947967,176.775949 235.410035,175.236614 235.305845,177.144842 C232.846053,177.026432 236.0465,171.217492 233.586708,171.101359 Z M694.7433,190.960146 C695.810116,191.263003 694.03662,195.935659 694.7433,198.729688 C692.267654,198.627218 689.119301,199.198776 687.871285,197.864382 C687.871285,195.851405 687.871285,193.836152 687.871285,191.823175 C689.927907,191.299437 694.102305,192.909363 694.7433,190.960146 Z M212.977459,192.686205 C214.97972,192.686205 216.986512,192.686205 218.986508,192.686205 C217.996702,193.704079 218.014822,195.739826 218.128073,197.864382 C216.411201,197.864382 214.692065,197.864382 212.977459,197.864382 C212.977459,196.1406 212.977459,194.414541 212.977459,192.686205 Z M716.210986,212.542714 C717.930122,213.496829 715.16682,217.178936 716.210986,220.314534 C714.208724,220.314534 712.204198,220.314534 710.201936,220.314534 C708.874645,219.05984 709.445426,215.894639 709.343501,213.408021 C711.395592,212.879729 715.57452,214.489654 716.210986,212.542714 Z M190.649073,215.131803 C191.018268,213.200803 194.880096,214.783403 196.658122,214.268773 C196.658122,215.994832 196.658122,217.725446 196.658122,219.449228 C195.410106,219.920592 192.223249,218.440462 192.363679,220.312257 C189.933333,220.455716 193.07942,214.990621 190.649073,215.131803 Z M739.397807,234.12756 C738.507661,236.397852 738.371761,239.424148 738.539371,242.760132 C735.712649,242.723698 734.265313,241.300497 730.808921,241.897103 C730.808921,239.592655 730.808921,237.295038 730.808921,234.99059 C734.466898,235.500665 736.489545,234.371212 739.397807,234.12756 Z M169.176858,234.99059 C171.235744,235.512051 173.095311,236.231622 176.048873,235.853619 C174.866542,236.967132 175.199497,239.601763 175.190437,241.897103 C173.183646,241.897103 171.181384,241.897103 169.176858,241.897103 C169.176858,239.594932 169.176858,237.295038 169.176858,234.99059 Z M760.867757,253.98407 C764.009314,254.457712 759.155416,260.546738 760.867757,265.210285 C757.434015,265.494925 756.102194,263.67095 752.281136,264.347255 C752.788496,260.671979 751.665056,258.636232 751.4227,255.712406 C755.173543,255.742009 759.182596,256.028926 760.867757,253.98407 Z M145.992301,255.712406 C148.250508,256.607315 151.260695,256.743943 154.578923,256.575436 C154.578923,258.879884 154.578923,261.179778 154.578923,263.481949 C151.25843,263.019693 150.38867,265.023561 146.853002,264.347255 C147.020612,261.011271 146.882447,257.984975 145.992301,255.712406 Z M121.088609,274.705887 C123.106725,274.432632 127.949299,278.722731 133.971938,277.294975 C133.561973,281.441615 133.428338,284.531671 133.113502,286.790577 C129.256205,286.367032 126.678633,287.230061 123.668446,287.65816 C125.666177,283.593496 124.225636,276.397789 121.088609,274.705887 Z M753.998007,302.334216 C755.431753,302.334216 756.860969,302.334216 758.29245,302.334216 C758.29245,303.484163 758.29245,304.63411 758.29245,305.786334 C756.860969,305.786334 755.431753,305.786334 753.998007,305.786334 C753.998007,304.63411 753.998007,303.484163 753.998007,302.334216 Z M780.620836,321.327696 C782.568738,322.2431 780.949261,326.75408 781.479272,329.094962 C778.242584,329.759882 777.375089,328.042931 774.609522,328.231932 C774.609522,326.218956 774.609522,324.201425 774.609522,322.190726 C776.385283,321.676096 780.249376,323.258696 780.620836,321.327696 Z M126.241487,323.053755 C127.960624,323.053755 129.677495,323.053755 131.392101,323.053755 C131.392101,324.779814 131.392101,326.50815 131.392101,328.231932 C129.67523,328.231932 127.958359,328.231932 126.241487,328.231932 C126.241487,326.50815 126.241487,324.779814 126.241487,323.053755 Z M806.385229,338.59284 C806.795195,340.933723 802.561907,349.044834 805.526794,354.134203 C802.901657,352.453686 798.899399,352.164492 794.360336,352.405867 C795.735192,348.448227 794.421491,346.542276 794.360336,342.044958 C799.839375,342.375141 804.521133,341.908331 806.385229,338.59284 Z M102.19623,342.047236 C105.206418,342.475335 107.786254,343.33381 111.643552,342.910265 C111.643552,345.503908 111.643552,348.090719 111.643552,350.682085 C109.713771,352.194094 105.183767,351.094244 103.054666,352.408144 C103.070521,348.653168 103.340056,344.638601 102.19623,342.047236 Z M779.762401,367.084199 C779.762401,368.525618 779.762401,369.96476 779.762401,371.401624 C778.33092,371.401624 776.897174,371.401624 775.467957,371.401624 C774.774867,367.828819 776.783923,366.970343 779.762401,367.084199 Z M131.394366,367.949506 C131.394366,368.812536 131.394366,369.675565 131.394366,370.538595 C129.872285,370.342762 127.095393,371.410733 127.960624,368.812536 C128.723929,368.143061 129.899465,367.883469 131.394366,367.949506 Z M802.088521,386.07768 C805.988854,387.257229 801.361456,392.364815 803.805393,395.577836 C801.680821,394.261659 797.148553,395.363786 795.218771,393.849499 C795.218771,391.545051 795.218771,389.245157 795.218771,386.945263 C797.273128,386.414694 801.449791,388.02462 802.088521,386.07768 Z M103.913102,388.669045 C104.551832,386.722105 108.733025,388.332031 110.785116,387.806016 C110.785116,389.818992 110.785116,391.836523 110.785116,393.847222 C108.778325,393.847222 106.776064,393.847222 104.773802,393.847222 C104.277767,392.330659 105.813438,388.77607 103.913102,388.669045 Z M775.465692,411.116921 C777.712574,410.875546 779.15991,411.433441 778.903965,413.706009 C776.659348,413.949661 774.604992,413.997481 775.465692,411.116921 Z M802.088521,430.112678 C804.038688,431.028081 802.416947,435.539061 802.946957,437.882221 C799.762365,438.494767 799.261799,436.406645 796.077207,437.016914 C796.077207,435.003938 796.077207,432.986407 796.077207,430.975708 C797.857498,430.461078 801.717061,432.041401 802.088521,430.112678 Z M104.773802,431.83646 C106.490673,431.83646 108.207545,431.83646 109.926681,431.83646 C110.753406,436.126559 108.6311,437.442736 104.773802,437.014637 C104.773802,435.290855 104.773802,433.564796 104.773802,431.83646 Z M79.0094089,448.240852 C81.892756,450.233334 85.5892386,451.410607 91.0343025,450.82994 C90.2981769,455.151919 90.2981769,456.86887 91.0343025,461.193126 C85.6730437,460.981353 80.9890204,461.452718 79.0094089,464.645244 C79.4827943,462.074372 82.3480213,452.883905 79.0094089,448.240852 Z M802.946957,474.143122 C802.946957,476.734488 802.946957,479.321299 802.946957,481.912665 C800.892601,481.391204 799.030769,480.671633 796.077207,481.049635 C796.077207,479.034382 796.077207,477.019128 796.077207,475.006152 C799.261799,475.614143 799.762365,473.530576 802.946957,474.143122 Z M104.773802,475.003875 C107.396674,474.38222 107.904034,475.887398 109.926681,475.869181 C109.926681,477.308323 109.926681,478.745187 109.926681,480.186606 C108.678665,480.65797 105.487278,479.17784 105.632238,481.049635 C103.711516,480.676187 105.283428,476.79597 104.773802,475.003875 Z M775.465692,498.314779 C776.826958,498.38537 778.74315,497.900343 778.903965,499.182363 C779.841676,502.210936 773.633306,501.489089 775.465692,498.314779 Z M803.805393,516.447507 C803.791803,520.202483 803.522267,524.214773 804.663828,526.806138 C801.488296,526.261906 799.553985,524.465256 795.218771,525.080079 C795.218771,522.490991 795.218771,519.901903 795.218771,517.310537 C798.874484,517.818335 800.899396,516.688882 803.805393,516.447507 Z M103.913102,517.310537 C105.971988,517.831998 107.831554,518.551569 110.785116,518.175844 C110.785116,520.18882 110.785116,522.204074 110.785116,524.21705 C107.546164,523.554407 106.680934,525.271358 103.913102,525.080079 C103.913102,522.490991 103.913102,519.899625 103.913102,517.310537 Z M775.465692,540.619165 C776.897174,540.619165 778.33092,540.619165 779.760136,540.619165 C779.760136,542.349778 779.760136,544.075837 779.760136,545.801896 C778.763535,545.075494 777.454364,544.661057 775.465692,544.936589 C775.465692,543.499725 775.465692,542.060583 775.465692,540.619165 Z M127.960624,541.486748 C129.31736,541.557339 131.233551,541.070035 131.394366,542.349778 C132.332077,545.378351 126.128237,544.661057 127.960624,541.486748 Z M102.19623,558.751893 C105.371763,559.298402 107.310604,561.095052 111.643552,560.480229 C111.475942,563.813936 111.611842,566.840232 112.501988,569.110524 C107.718304,569.194777 103.199626,569.545454 101.337795,572.567196 C100.275509,569.65931 105.047867,563.877696 102.19623,558.751893 Z M782.337707,582.06052 C780.659341,584.178244 781.477007,589.31771 783.196143,590.69537 C781.508717,592.614984 777.499664,589.56364 773.748821,590.69537 C773.748821,588.106281 773.748821,585.517193 773.748821,582.92355 C777.569879,583.599855 778.903965,581.773603 782.337707,582.06052 Z M126.241487,582.92355 C128.259604,583.199082 129.464585,584.289823 132.252802,583.791134 C132.252802,585.80411 132.252802,587.817086 132.252802,589.83234 C130.47251,590.34697 126.612948,588.764369 126.241487,590.69537 C123.996871,589.212963 127.453263,586.223101 126.241487,582.92355 Z M753.139572,605.371425 C755.144098,605.371425 757.148625,605.371425 759.150886,605.371425 C759.150886,607.384402 759.150886,609.401932 759.150886,611.412632 C757.13277,611.1371 755.925524,610.048635 753.139572,610.549602 C753.139572,608.82582 753.139572,607.099761 753.139572,605.371425 Z M149.428309,606.234455 C150.572135,606.234455 151.72049,606.234455 152.864316,606.234455 C153.881302,610.137443 150.85979,609.978044 148.569873,610.551879 C148.295808,608.550288 148.708038,607.238666 149.428309,606.234455 Z M732.528057,627.819301 C733.674148,627.819301 734.817974,627.819301 735.96633,627.819301 C735.96633,629.258442 735.96633,630.697584 735.96633,632.136725 C735.198494,631.464974 734.025223,631.207659 732.528057,631.273696 C732.528057,630.121472 732.528057,628.971525 732.528057,627.819301 Z M145.992301,645.952028 C148.667268,647.004059 151.4351,647.962728 155.441888,647.678087 C153.185947,650.196585 156.202929,652.653601 155.441888,656.31066 C149.824684,655.554655 147.292412,657.906923 143.416995,658.899748 C146.037601,656.351648 146.257307,651.394352 145.992301,645.952028 Z M729.950485,678.758535 C728.564304,677.58354 730.838366,672.792474 729.950485,669.260656 C733.504273,669.381344 736.58694,669.021558 738.539371,667.53232 C740.054657,672.050132 739.114682,679.043175 742.833814,681.345346 C741.096558,681.900964 734.408008,675.47037 729.950485,678.758535 Z M168.318422,669.260656 C171.856355,668.582074 172.72838,670.585942 176.048873,670.123686 C175.455442,673.596298 176.871068,675.051379 176.907308,677.893228 C173.394291,678.102724 168.628727,677.05297 167.459987,679.621564 C165.73179,677.542551 169.663833,673.812624 168.318422,669.260656 Z M708.485065,699.478074 C707.882575,695.707159 709.945991,694.616417 709.343501,690.845502 C712.661728,691.016286 715.671915,690.877382 717.930122,689.982473 C715.789695,693.443699 718.054697,698.747118 719.646993,701.204133 C717.785162,702.176465 713.266483,698.437429 708.485065,699.478074 Z M189.790637,690.845502 C192.615094,690.881936 194.064695,692.305138 197.521088,691.710809 C198.030713,693.49835 196.458802,697.378567 198.379524,697.752015 C195.892552,699.282242 191.801959,699.200265 188.932202,700.341104 C189.958248,697.920522 189.876708,694.384151 189.790637,690.845502 Z M212.119023,712.428071 C213.367039,713.762465 216.510861,713.18863 218.986508,713.2911 C218.393078,716.763712 219.808704,718.218794 219.844944,721.06292 C215.987646,720.637098 213.410074,721.497851 210.397622,721.92595 C210.868742,718.653724 212.479159,716.533723 212.119023,712.428071 Z M686.154414,721.92595 C687.042295,719.655658 687.182725,716.627085 687.01285,713.2911 C690.763692,713.896815 691.850893,711.822356 695.601736,712.428071 C695.683276,717.237354 696.029821,721.780214 699.037743,723.652009 C696.720647,724.542364 690.652707,719.054498 686.154414,721.92595 Z M232.728273,734.015194 C235.636535,734.254292 237.659181,735.388299 241.317159,734.878223 C240.807534,738.551222 241.930974,740.589247 242.175595,743.508518 C238.898137,742.023834 234.019324,743.087251 231.869837,745.239132 C230.322841,743.062202 234.064624,738.842694 232.728273,734.015194 Z M279.101916,736.602005 C279.960351,736.602005 280.818787,736.602005 281.681753,736.602005 C281.681753,737.751952 281.681753,738.906453 281.681753,740.0564 C278.814261,740.923984 278.859561,738.860911 279.101916,736.602005 Z M624.326665,736.602005 C625.470491,736.602005 626.614317,736.602005 627.760408,736.602005 C627.690193,737.827097 627.619978,739.047635 628.621108,739.191094 C628.761539,741.065166 625.574681,739.582759 624.326665,740.0564 C624.326665,738.906453 624.326665,737.751952 624.326665,736.602005 Z M601.996015,757.326099 C603.712886,757.326099 605.432022,757.326099 607.146628,757.326099 C606.460333,760.318238 608.426354,760.643867 608.005064,763.367305 C605.717412,763.367305 603.427496,763.367305 601.137579,763.367305 C602.322175,762.253792 601.986955,759.616884 601.996015,757.326099 Z M299.711165,758.189128 C301.430302,758.189128 303.147173,758.189128 304.861779,758.189128 C304.861779,759.625993 304.861779,761.065134 304.861779,762.504276 C303.613763,762.977917 300.422376,761.49551 300.569601,763.369582 C298.67153,763.258003 300.207201,759.703415 299.711165,758.189128 Z M586.539644,777.182609 C588.550965,779.186477 586.365238,785.409853 589.11495,786.680487 C587.647229,787.819049 581.88733,785.92676 577.950758,786.680487 C578.879408,784.159712 579.876009,781.702697 579.667629,778.045638 C581.71972,777.517346 585.900913,779.127271 586.539644,777.182609 Z M320.32268,778.045638 C322.612597,778.045638 324.902513,778.045638 327.19243,778.045638 C326.519724,781.887144 328.336256,783.223815 328.050865,786.680487 C325.398549,784.444353 321.946686,786.933248 318.603544,786.680487 C319.532194,784.157435 320.52653,781.702697 320.32268,778.045638 Z M364.977187,779.76942 C366.410933,779.76942 367.842414,779.76942 369.27163,779.76942 C369.27163,781.210839 369.27163,782.64998 369.27163,784.086845 C367.554758,784.086845 365.837887,784.086845 364.118751,784.086845 C364.841287,783.084911 365.251252,781.773288 364.977187,779.76942 Z M408.777788,779.76942 C409.636223,779.76942 410.494659,779.76942 411.353094,779.76942 C411.353094,780.919367 411.353094,782.073868 411.353094,783.223815 C408.485602,784.093676 408.533167,782.028326 408.777788,779.76942 Z M495.511494,779.76942 C496.36993,779.76942 497.228365,779.76942 498.089066,779.76942 C498.089066,780.919367 498.089066,782.073868 498.089066,783.223815 C495.221574,784.093676 495.271404,782.028326 495.511494,779.76942 Z M537.588429,779.76942 C539.022175,779.76942 540.453656,779.76942 541.882872,779.76942 C541.259997,782.410882 543.361918,782.310689 542.741308,784.947597 C541.024436,784.947597 539.303035,784.947597 537.588429,784.947597 C537.588429,783.223815 537.588429,781.497756 537.588429,779.76942 Z M384.730266,799.630484 C387.305572,799.630484 389.880879,799.630484 392.456186,799.630484 C391.842371,803.984343 393.631722,805.931282 394.173057,809.123808 C391.708736,807.488834 385.613616,808.171971 383.011129,809.123808 C383.48225,805.856137 385.092666,803.733859 384.730266,799.630484 Z M512.687001,809.123808 C513.155857,805.856137 514.761743,803.733859 514.403872,799.630484 C517.266835,799.630484 520.129797,799.630484 522.990494,799.630484 C522.961049,803.396845 522.671128,807.427352 524.707365,809.123808 C523.237379,809.854765 516.163779,806.662239 512.687001,809.123808 Z M428.526337,800.493513 C430.816253,800.493513 433.10617,800.493513 435.393822,800.493513 C434.804921,803.963848 436.216017,805.421207 436.252257,808.260779 C433.3372,806.773818 429.960083,807.661896 426.809465,808.260779 C427.731321,806.022367 428.895532,804.027608 428.526337,800.493513 Z M471.463972,800.493513 C473.756154,800.493513 476.043805,800.493513 478.331457,800.493513 C478.406202,803.296651 478.777662,805.803764 480.052858,807.397749 C477.556826,809.321918 473.993979,806.32067 470.605536,808.260779 C470.641776,805.421207 472.057402,803.963848 471.463972,800.493513 Z" fill="#F1EFEE"></path>
</svg>
