<?xml version="1.0" encoding="UTF-8"?>
<svg width="24px" height="24px" viewBox="0 0 24 24" version="1.1" xmlns="http://www.w3.org/2000/svg" xmlns:xlink="http://www.w3.org/1999/xlink">
  <path fill="#807973" fill-rule="evenodd" d="M19.0260546,11.9430342 L17.9436129,12.4810094 L14.0589479,10.5426074 L19.0260546,8.04773896 L19.0260546,11.9430342 Z M11.2623524,11.4427861 L15.6255881,13.6351831 L11.7600397,15.564801 L4.58436725,11.9843047 L4.58436725,8.0893072 L11.2635136,11.4471335 L11.2623524,11.4427861 Z M11.7600397,21.7714809 L4.58436725,18.1910144 L4.58436725,14.2753221 L9.30533995,16.6492079 L9.29634739,16.6607315 L15.6281489,19.8418928 L11.7600397,21.7714809 Z M19.0260546,18.1497141 L17.9436129,18.6876893 L14.0382829,16.7390144 L19.0260546,14.2337241 L19.0260546,18.1497141 Z M21.1075335,6.36613102 L21.1104218,6.36613102 L21.1104218,18.8127811 L21.1069975,18.8127811 C21.0892208,19.2594313 20.7823722,19.6409002 20.366273,19.7634313 L12.2533499,23.8398283 L12.2527246,23.8382501 C12.1155732,23.9054263 11.9618065,23.9432725 11.7987792,23.9432725 C11.6095186,23.9432725 11.4330323,23.8921757 11.280397,23.8034412 L11.2630968,23.8398283 L3.23491811,19.8043444 C2.8066402,19.6777935 2.5,19.2817042 2.5,18.812394 L2.5,6.35764467 C2.5,5.7863196 2.95713151,5.32344119 3.5284268,5.32344119 C4.05160298,5.32344119 11.7566452,9.37985806 11.7566452,9.37985806 C11.7566452,9.37985806 19.5196625,5.34812605 20.073598,5.34812605 C20.6379851,5.34812605 21.0964566,5.80037419 21.1075335,6.36613102 Z M10.9774908,5.74317618 C10.9774908,5.71628784 10.9863643,5.68972705 10.9863643,5.6634938 L10.9863643,0.907146402 C10.9863643,0.880913151 10.9774908,0.854411911 10.9774908,0.827523573 C10.9774908,0.37048139 11.3430293,0 11.8000715,0 C12.2571136,0 12.6276546,0.381022333 12.6276546,0.827672457 L12.6240814,0.827672457 L12.6240814,5.80037717 L12.6261955,5.80037717 C12.6016893,6.21725062 12.2437439,6.57570223 11.8025727,6.57570223 C11.3455007,6.57570223 10.9774908,6.20021836 10.9774908,5.74317618 Z M8.48985211,4.94705509 C8.0373062,4.94705509 7.66980248,4.57952159 7.6626263,4.13287146 L7.65137072,4.13287146 L7.65137072,2.43560099 L7.6626263,2.43560099 C7.67007047,1.98499057 8.03745509,1.62192357 8.48985211,1.62192357 C8.94224913,1.62192357 9.30960397,1.98499057 9.31704814,2.43560099 L9.31886452,2.43560099 L9.31886452,4.13287146 L9.31707792,4.13287146 C9.30990174,4.57952159 8.94239801,4.94705509 8.48985211,4.94705509 Z M15.1268645,4.92435037 C14.6819117,4.92435037 14.3191424,4.57953648 14.3002342,4.13288635 L14.2915692,4.13288635 L14.2915692,2.43561588 L14.2996685,2.43561588 C14.3071127,1.98497568 14.6744675,1.62193846 15.1268645,1.62193846 C15.5792615,1.62193846 15.9466462,1.98497568 15.9540903,2.43561588 L15.959063,2.43561588 L15.959063,4.13288635 L15.9535246,4.13288635 C15.9345866,4.57953648 15.5718174,4.92435037 15.1268645,4.92435037 Z"></path>
</svg>
