<svg width="822" height="820" viewBox="0 0 822 820" fill="none" xmlns="http://www.w3.org/2000/svg">
<path d="M584.457 609.673L701.334 640.99C708.002 642.776 711.959 649.631 710.172 656.299L709.453 658.984C657.54 651.392 611.83 638.674 568.425 621.206L569.147 618.511C570.934 611.843 577.788 607.886 584.457 609.673Z" fill="#D9D9D9" stroke="#4E4D4C" stroke-width="5"/>
<path d="M588.812 603.075L700.86 633.098L698.994 640.06C655.737 632.304 630.51 625.587 586.949 610.03L588.812 603.075Z" fill="#D9D9D9" stroke="#4E4D4C" stroke-width="5"/>
<path d="M590.429 591.085L705.479 621.912C708.378 622.689 710.098 625.668 709.321 628.567C708.59 631.296 705.906 632.992 703.166 632.477C664.604 625.235 621.88 613.798 587.101 601.415C584.479 600.482 583.013 597.673 583.744 594.944C584.525 592.032 587.517 590.305 590.429 591.085Z" fill="#D9D9D9" stroke="#4E4D4C" stroke-width="5"/>
<path d="M752.194 573.698L752.212 573.596L752.237 573.504L752.237 573.501L752.238 573.501C752.24 573.491 752.245 573.47 752.252 573.439C752.259 573.411 752.267 573.376 752.277 573.333C752.289 573.277 752.303 573.208 752.32 573.126C752.378 572.836 752.458 572.386 752.532 571.791C752.681 570.602 752.809 568.841 752.7 566.638C752.482 562.24 751.321 556.067 747.483 549.139C739.829 535.323 721.237 518.015 676.815 506.112C632.393 494.209 607.638 499.902 594.101 508.04C587.313 512.121 583.221 516.887 580.834 520.587C579.638 522.44 578.868 524.029 578.402 525.133C578.17 525.685 578.013 526.115 577.919 526.396C577.871 526.536 577.839 526.638 577.821 526.7C577.811 526.731 577.805 526.751 577.803 526.761C577.802 526.763 577.802 526.764 577.802 526.765L577.736 527.009L577.619 527.241L577.52 527.191C577.619 527.241 577.619 527.241 577.619 527.241L577.618 527.242L577.615 527.248L577.602 527.273L577.551 527.376C577.504 527.468 577.435 527.606 577.346 527.786C577.166 528.148 576.902 528.681 576.569 529.365C575.903 530.732 574.961 532.697 573.86 535.084C571.655 539.862 568.822 546.307 566.291 553.005C563.751 559.728 561.557 566.595 560.579 572.248C560.088 575.081 559.926 577.483 560.121 579.35C560.319 581.253 560.847 582.252 561.388 582.737C561.686 583.006 562.535 583.537 564.172 584.307C565.729 585.038 567.786 585.889 570.296 586.842C575.31 588.745 582.002 591.008 589.842 593.486C605.515 598.439 625.662 604.215 645.903 609.639C666.144 615.063 686.45 620.126 702.438 623.656C710.437 625.422 717.325 626.798 722.573 627.644C725.2 628.068 727.38 628.353 729.066 628.491C730.848 628.637 731.799 628.59 732.14 628.512C732.866 628.345 733.907 627.693 735.197 626.12C736.451 624.59 737.73 622.447 739.001 619.809C741.537 614.542 743.856 607.687 745.827 600.809C747.792 593.953 749.385 587.171 750.488 582.096C751.038 579.561 751.466 577.456 751.755 575.987C751.9 575.253 752.01 574.678 752.084 574.288C752.12 574.093 752.148 573.944 752.167 573.844L752.187 573.733L752.192 573.705L752.193 573.699L752.194 573.698C752.194 573.698 752.194 573.698 752.429 573.74L752.194 573.698Z" fill="#E6E5E5" stroke="#4E4D4C" stroke-width="5"/>
<path d="M716.903 522.03L713.484 566.666L705.683 572.599L709.472 581.638" stroke="#4E4D4C" stroke-width="5"/>
<path d="M629.97 498.736L610.613 539.101L614.403 548.14L606.472 554.556" stroke="#4E4D4C" stroke-width="5"/>
<path d="M622.131 602.234L635.178 510.484L707.357 529.825L668.658 614.701L622.131 602.234Z" fill="#E6E5E5" stroke="#4E4D4C" stroke-width="5"/>
<line x1="668.81" y1="528.139" x2="683.59" y2="557.981" stroke="#4E4D4C" stroke-width="5"/>
<line y1="-2.5" x2="33.3017" y2="-2.5" transform="matrix(-0.832416 0.554151 0.554151 0.832416 668.985 529.896)" stroke="#4E4D4C" stroke-width="5"/>
<path d="M622.694 426.615C622.694 432.986 621.072 438.636 618.583 442.613C616.071 446.624 612.921 448.615 609.857 448.615C606.792 448.615 603.642 446.624 601.131 442.613C598.641 438.636 597.019 432.986 597.019 426.615C597.019 420.244 598.641 414.595 601.131 410.618C603.642 406.606 606.792 404.615 609.857 404.615C612.921 404.615 616.071 406.606 618.583 410.618C621.072 414.595 622.694 420.244 622.694 426.615Z" fill="#F2F2F2" stroke="#4E4D4C" stroke-width="5"/>
<path d="M607.845 417.587C616.645 412.754 625.948 427.583 618.908 441.445" stroke="#4E4D4C" stroke-width="5" stroke-linecap="round"/>
<path d="M760.352 463.5C757.167 469.018 755.746 474.721 755.914 479.41C756.083 484.14 757.816 487.439 760.47 488.972C763.123 490.504 766.847 490.355 771.028 488.136C775.172 485.937 779.402 481.855 782.587 476.338C785.773 470.82 787.193 465.117 787.025 460.428C786.856 455.698 785.123 452.399 782.47 450.866C779.816 449.334 776.092 449.483 771.911 451.702C767.767 453.901 763.538 457.983 760.352 463.5Z" fill="#F2F2F2" stroke="#4E4D4C" stroke-width="5"/>
<path d="M777.726 463.105C772.521 454.52 757.05 462.711 756.216 478.236" stroke="#4E4D4C" stroke-width="5" stroke-linecap="round"/>
<path d="M622.724 399.492L622.724 399.492L622.724 399.494L622.549 400.464L621.853 400.98C621.834 401 621.806 401.031 621.77 401.075C621.621 401.255 621.334 401.644 620.958 402.346C620.202 403.755 619.11 406.386 618.07 411.023C615.986 420.312 614.16 437.408 615.478 468.298C616.741 497.905 639.695 519.29 667.088 526.798C694.466 534.302 725.429 527.704 742.402 502.253C746.755 495.725 750.503 490.125 753.738 485.293C763.714 470.386 768.805 462.78 771.703 457.765C774.651 452.661 775.193 450.518 776.452 445.537C776.765 444.296 777.123 442.879 777.574 441.196C777.786 440.407 778.019 439.575 778.263 438.701C780.662 430.124 784.158 417.624 779.053 404.519C773.493 390.245 757.306 374.458 715.298 363.202C673.598 352.029 650.626 361.552 638.056 373.239C631.698 379.151 627.852 385.75 625.597 390.883C624.47 393.446 623.746 395.631 623.306 397.162C623.086 397.926 622.937 398.526 622.845 398.926C622.799 399.126 622.768 399.276 622.748 399.371C622.738 399.419 622.732 399.453 622.728 399.473L622.725 399.49L622.724 399.492Z" fill="#F2F2F2" stroke="#4E4D4C" stroke-width="5"/>
<circle cx="656.975" cy="432.726" r="8.25" transform="rotate(15 656.975 432.726)" fill="#4E4D4C"/>
<ellipse cx="664.709" cy="549.714" rx="5" ry="4.75" transform="rotate(15 664.709 549.714)" fill="#4E4D4C"/>
<ellipse cx="660.698" cy="564.686" rx="5" ry="4.75" transform="rotate(15 660.698 564.686)" fill="#4E4D4C"/>
<ellipse cx="727.246" cy="451.555" rx="8.5" ry="8.25" transform="rotate(15 727.246 451.555)" fill="#4E4D4C"/>
<path d="M645.882 403.613C654.291 398.349 666.734 401.534 671.479 410.472" stroke="#4E4D4C" stroke-width="10" stroke-linecap="round" stroke-linejoin="round"/>
<path d="M726.536 425.224C734.946 419.96 747.389 423.145 752.133 432.083" stroke="#4E4D4C" stroke-width="10" stroke-linecap="round" stroke-linejoin="round"/>
<path d="M681.932 502.824L670.341 499.718" stroke="#4E4D4C" stroke-width="10" stroke-linecap="round" stroke-linejoin="round"/>
<path d="M676.269 471.802C682.647 481.177 682.678 481.036 692.689 476.202C692.689 476.202 723.378 494.001 734.707 487.46C734.707 487.46 717.009 501.352 705.417 498.246C693.826 495.14 681.986 485.238 681.986 485.238C681.986 485.238 671.61 489.188 653.74 484.399C635.871 479.611 632.319 460.025 632.319 460.025C638.683 471.048 676.269 471.802 676.269 471.802Z" fill="#4E4D4C" stroke="#4E4D4C" stroke-width="10" stroke-linecap="round" stroke-linejoin="round"/>
<path d="M691.476 423.595C691.476 423.595 678.093 454.308 681.85 459.521C685.607 464.735 695.167 463.09 695.167 463.09" stroke="#4E4D4C" stroke-width="5" stroke-linecap="round"/>
<path d="M649.581 345.377C678.904 347.988 714.204 327.327 742.124 345.803C770.043 364.278 760.585 383.154 760.585 383.154C760.585 383.154 719.944 394.771 692.657 387.46C665.369 380.148 655.47 370.728 649.581 345.377Z" fill="#4E4D4C"/>
<path d="M663.201 358.561L682.524 369.253C651.003 376.482 634.983 387.042 618.594 410.795C618.466 373.155 633.68 352.034 663.201 358.561Z" fill="#4E4D4C"/>
<path d="M760.02 381.397L752.334 398.49C770.457 420.817 771.884 421.566 774.625 450.533C796.534 417.063 794.839 391.221 760.02 381.397Z" fill="#4E4D4C"/>
<path d="M132.717 622.352L249.594 591.035C256.262 589.248 263.117 593.205 264.903 599.874L265.64 602.623C216.891 622.025 170.946 633.864 124.617 640.42L123.878 637.661C122.091 630.993 126.049 624.139 132.717 622.352Z" fill="#D9D9D9" stroke="#4E4D4C" stroke-width="5"/>
<path d="M133.184 614.436L245.232 584.413L247.108 591.414C205.771 606.338 180.565 613.134 135.058 621.43L133.184 614.436Z" fill="#D9D9D9" stroke="#4E4D4C" stroke-width="5"/>
<path d="M128.605 603.199L243.603 572.385C246.516 571.605 249.51 573.333 250.29 576.246C251.025 578.989 249.543 581.813 246.899 582.742C209.898 595.755 167.199 607.208 130.898 613.863C128.148 614.367 125.461 612.659 124.726 609.917C123.942 606.99 125.679 603.983 128.605 603.199Z" fill="#D9D9D9" stroke="#4E4D4C" stroke-width="5"/>
<path d="M259.82 506.528L259.786 506.432L259.761 506.34L259.76 506.337L259.76 506.336C259.757 506.326 259.751 506.306 259.742 506.275C259.723 506.213 259.691 506.11 259.643 505.969C259.548 505.687 259.392 505.256 259.158 504.701C258.691 503.593 257.919 501.998 256.719 500.138C254.325 496.424 250.223 491.64 243.419 487.543C229.851 479.373 205.045 473.653 160.542 485.577C116.039 497.502 97.4161 514.859 89.7516 528.718C85.9077 535.668 84.7467 541.862 84.5301 546.276C84.4215 548.486 84.5499 550.254 84.6999 551.447C84.7748 552.044 84.855 552.496 84.9134 552.788C84.9426 552.933 84.9662 553.039 84.981 553.102C84.9884 553.133 84.9935 553.154 84.996 553.164L84.9969 553.167L84.997 553.168L84.9962 553.165C84.9957 553.163 84.9951 553.161 82.5803 553.808L84.9951 553.161L84.9972 553.168L85.0623 553.411L85.0766 553.671L84.9832 553.676C85.0766 553.671 85.0766 553.671 85.0766 553.671L85.0766 553.672L85.077 553.679L85.0786 553.707L85.0853 553.822C85.0913 553.925 85.1005 554.08 85.1131 554.282C85.1383 554.686 85.177 555.282 85.2308 556.043C85.3385 557.565 85.5065 559.745 85.7476 562.371C86.2301 567.629 87.003 574.65 88.165 581.739C89.3312 588.855 90.8711 595.923 92.8564 601.327C93.8512 604.035 94.9151 606.205 96.0206 607.731C97.1471 609.287 98.1081 609.891 98.8216 610.042C99.2158 610.126 100.219 610.163 102.025 610.01C103.742 609.866 105.953 609.574 108.608 609.143C113.912 608.284 120.852 606.896 128.896 605.119C144.975 601.567 165.348 596.487 185.626 591.053C205.905 585.62 226.058 579.841 241.698 574.894C249.522 572.419 256.188 570.161 261.165 568.266C263.656 567.317 265.691 566.472 267.222 565.747C268.841 564.98 269.643 564.463 269.899 564.224C270.447 563.714 271.023 562.624 271.354 560.609C271.676 558.649 271.711 556.145 271.491 553.215C271.05 547.366 269.626 540.246 267.888 533.281C266.156 526.338 264.138 519.645 262.551 514.682C261.757 512.203 261.073 510.16 260.588 508.738C260.345 508.027 260.152 507.473 260.021 507.096C259.955 506.908 259.904 506.765 259.87 506.669L259.832 506.562L259.823 506.536L259.821 506.53L259.82 506.528C259.82 506.528 259.82 506.528 260.065 506.441L259.82 506.528Z" fill="#E6E5E5" stroke="#4E4D4C" stroke-width="5"/>
<path d="M225.069 374.408C205.782 383.515 189.023 383.723 174.736 381.399C167.763 380.265 161.387 378.527 155.705 376.979C155.465 376.913 155.225 376.848 154.987 376.783C149.049 375.166 144.014 373.837 139.598 373.49C135.353 373.157 133.612 374.308 132.916 375.52C132.137 376.878 132.091 379.259 133.373 382.705C135.906 389.515 142.877 398.348 151.632 404.6C155.801 407.577 162.112 410.232 169.595 412.323C177.03 414.401 185.426 415.869 193.626 416.577C201.833 417.285 209.761 417.225 216.277 416.289C222.909 415.336 227.634 413.536 229.932 411.145C235.171 405.692 237.216 399.199 236.275 392.725C235.387 386.617 231.791 380.199 225.069 374.408Z" fill="#F2F2F2" stroke="#4E4D4C" stroke-width="5"/>
<path d="M229.922 369.112C229.158 363.511 225.731 357.606 219.119 352.308C199.749 361.175 183.069 361.665 168.902 359.746C161.989 358.81 155.679 357.301 150.051 355.954C149.813 355.897 149.576 355.841 149.34 355.784C143.462 354.379 138.462 353.223 134.059 352.976C129.781 352.737 128.035 353.872 127.355 354.964C126.615 356.15 126.496 358.263 127.699 361.426C130.075 367.679 136.824 375.79 145.436 381.482C149.537 384.192 155.781 386.565 163.201 388.389C170.573 390.201 178.911 391.426 187.067 391.943C195.23 392.461 203.132 392.264 209.644 391.274C216.28 390.264 221.019 388.493 223.337 386.229C228.631 381.059 230.728 375.026 229.922 369.112Z" fill="#F2F2F2" stroke="#4E4D4C" stroke-width="5"/>
<path d="M43.8647 444.281C41.5798 438.547 41.4844 431.191 44.4103 422.815C65.6671 421.058 80.2854 412.859 91.4954 403.703C96.967 399.234 101.62 394.541 105.767 390.359C105.942 390.182 106.117 390.006 106.291 389.831C110.625 385.461 114.321 381.793 117.971 379.285C121.481 376.874 123.565 377 124.773 377.702C126.127 378.488 127.357 380.527 127.97 384.153C129.182 391.317 127.561 402.452 123.105 412.244C120.983 416.906 116.845 422.361 111.41 427.913C106.01 433.431 99.4731 438.9 92.7256 443.613C85.9723 448.33 79.0759 452.241 72.9652 454.689C66.7449 457.18 61.753 457.984 58.5673 457.062C51.3042 454.959 46.2864 450.358 43.8647 444.281Z" fill="#F2F2F2" stroke="#4E4D4C" stroke-width="5"/>
<path d="M37.5604 420.655C35.4213 415.422 35.4369 408.595 38.5137 400.701C59.7218 398.695 74.412 390.779 85.7217 382.035C91.2407 377.767 95.9505 373.305 100.152 369.324C100.329 369.156 100.506 368.989 100.682 368.822C105.07 364.666 108.822 361.165 112.512 358.75C116.097 356.403 118.177 356.513 119.312 357.118C120.546 357.776 121.704 359.547 122.245 362.887C123.313 369.49 121.524 379.89 116.912 389.125C114.715 393.523 110.494 398.699 104.98 403.989C99.5025 409.244 92.8938 414.474 86.0889 419C79.2783 423.53 72.3371 427.31 66.2022 429.709C59.9498 432.152 54.9606 432.988 51.8207 432.186C44.6515 430.356 39.8187 426.18 37.5604 420.655Z" fill="#F2F2F2" stroke="#4E4D4C" stroke-width="5"/>
<path d="M208.375 378.247C222.59 431.297 200.372 482.193 160.276 492.937C120.18 503.68 75.4912 470.712 61.2764 417.662C47.0616 364.612 69.2795 313.716 109.376 302.972C149.471 292.229 194.161 325.197 208.375 378.247Z" fill="#E6E5E5" stroke="#4E4D4C" stroke-width="5"/>
<path d="M68.6487 338.822C78.0763 322.309 92.2995 310.153 110.027 305.403C127.755 300.653 146.151 304.069 162.572 313.656L68.6487 338.822Z" fill="#F2F2F2"/>
<path d="M178.273 405.269C179.456 409.685 176.733 414.251 172.19 415.469C167.647 416.686 163.005 414.093 161.822 409.677C160.639 405.262 163.362 400.695 167.905 399.478C170.297 398.837 173.711 397.922 177.824 396.82C181.937 395.718 177.713 403.179 178.273 405.269Z" fill="#4E4D4C"/>
<path d="M99.6685 426.331C100.852 430.747 105.493 433.34 110.036 432.123C114.579 430.906 117.303 426.339 116.119 421.924C114.936 417.508 110.294 414.915 105.752 416.132C103.36 416.773 99.9454 417.688 95.8327 418.79C91.72 419.892 99.1083 424.241 99.6685 426.331Z" fill="#4E4D4C"/>
<path d="M86.9145 416.854C89.1394 407.155 100.209 400.591 109.904 403.57" stroke="#4E4D4C" stroke-width="5" stroke-linecap="round" stroke-linejoin="round"/>
<path d="M161.821 392.255C168.592 384.974 181.46 384.834 188.372 392.265" stroke="#4E4D4C" stroke-width="5" stroke-linecap="round" stroke-linejoin="round"/>
<path d="M155.155 428.343C151.753 438.853 140.779 441.984 132.414 434.436" stroke="#4E4D4C" stroke-width="5" stroke-linecap="round" stroke-linejoin="round"/>
<path d="M165.516 446.341C159.171 454.44 152.171 450.301 149.83 450.544C147.932 452.794 145.497 451.705 145.497 451.705C145.497 451.705 138.08 459.353 132.077 457.023" stroke="#4E4D4C" stroke-width="5" stroke-linecap="round" stroke-linejoin="round"/>
<path d="M157.917 456.686C152.868 462.103 149.72 463.127 143.401 460.576" stroke="#4E4D4C" stroke-width="5" stroke-linecap="round" stroke-linejoin="round"/>
<path d="M48.6464 399.597C48.7444 399.545 48.8452 399.491 48.9487 399.436C50.6917 398.509 53.1957 397.15 56.2277 395.425C62.2952 391.974 70.4598 387.07 78.8643 381.255C87.2789 375.433 95.876 368.737 102.842 361.709C109.853 354.636 114.988 347.447 116.83 340.665L118.085 336.04L121.16 339.716C125.573 344.991 133.407 349.152 143.034 352.27C152.586 355.364 163.56 357.324 173.871 358.421C184.178 359.518 193.724 359.742 200.39 359.405C203.725 359.236 206.21 358.932 207.686 358.572C207.672 358.369 207.654 358.135 207.631 357.873C207.537 356.777 207.367 355.179 207.066 353.206C206.464 349.255 205.34 343.828 203.259 337.927C199.087 326.095 191.163 312.616 176.134 305.075C161.261 297.613 145.962 300.784 134.093 306.076C128.181 308.712 123.215 311.836 119.723 314.305C117.981 315.537 116.613 316.602 115.687 317.352C115.224 317.728 114.872 318.024 114.639 318.224C114.522 318.324 114.436 318.399 114.38 318.448L114.32 318.501L114.307 318.512L114.307 318.513L114.306 318.514L114.306 318.514L113.381 319.347L112.158 319.11L112.158 319.11L112.157 319.109L112.156 319.109L112.14 319.106L112.062 319.092C111.99 319.079 111.879 319.059 111.73 319.034C111.431 318.983 110.983 318.911 110.401 318.828C109.236 318.663 107.537 318.455 105.433 318.293C101.217 317.967 95.404 317.825 89.0074 318.549C76.1589 320.004 61.3578 324.898 52.0798 338.352C42.7132 351.936 42.0125 367.746 43.7705 380.393C44.6464 386.694 46.1235 392.133 47.3817 395.996C47.8487 397.429 48.2845 398.642 48.6464 399.597Z" fill="#F2F2F2" stroke="#4E4D4C" stroke-width="5"/>
<path d="M113.544 326.71C113.712 327.014 113.889 327.341 114.073 327.689C115.362 330.135 116.982 333.616 118.307 337.759C120.975 346.102 122.334 356.734 117.908 367.009C115.692 372.152 111.566 377.713 106.159 383.172C100.78 388.604 94.2623 393.805 87.4317 398.257C80.6009 402.709 73.512 406.376 67.0055 408.772C60.455 411.184 54.6875 412.236 50.4136 411.676C41.6768 410.533 37.6376 405.501 36.6132 399.886C35.5967 394.314 37.4223 387.532 41.7099 382.103C62.2056 378.832 80.6032 364.241 93.7881 350.664C100.507 343.745 105.945 337.015 109.704 332.013C111.291 329.902 112.581 328.096 113.544 326.71Z" fill="#F2F2F2" stroke="#4E4D4C" stroke-width="5"/>
<path d="M217.907 350.018C216.455 345.112 212.407 340.639 206.083 338.107C199.56 341.593 190.701 342.465 181.312 341.957C171.402 341.421 160.582 339.327 150.612 336.801C140.629 334.273 131.424 331.291 124.718 328.944C121.363 327.77 118.629 326.753 116.73 326.028C116.672 326.006 116.614 325.984 116.558 325.962C116.526 326.444 116.497 326.982 116.477 327.571C116.382 330.28 116.456 334.027 117.121 338.195C118.46 346.58 122.115 356.27 131.168 362.931C135.714 366.275 142.353 369.036 150.137 371.054C157.875 373.06 166.539 374.28 174.987 374.669C183.438 375.058 191.593 374.612 198.323 373.329C205.141 372.029 210.151 369.933 212.691 367.295C218.261 361.51 219.442 355.203 217.907 350.018Z" fill="#F2F2F2" stroke="#4E4D4C" stroke-width="5"/>
<path d="M57.6759 470.175C57.3745 465.179 60.9277 459.899 65.2575 455.517C67.346 453.403 69.4675 451.646 71.0721 450.416C71.3555 450.198 71.622 449.998 71.8686 449.815C72.2283 450.325 72.6424 450.959 73.0831 451.723C74.5406 454.249 76.2975 458.212 77.3274 463.805C77.7515 466.108 77.2767 468.883 76.0953 471.933C74.9253 474.954 73.1483 478.024 71.2528 480.812C69.3644 483.589 67.4029 486.022 65.9094 487.763C65.6944 488.014 65.4894 488.25 65.2961 488.47C64.5248 487.481 63.5762 486.169 62.6119 484.598C60.3097 480.845 58.0132 475.768 57.6759 470.175Z" fill="#F2F2F2" stroke="#4E4D4C" stroke-width="5"/>
<path d="M78.811 496.157C89.4739 489.995 86.7962 504.986 86.7962 504.986C86.7962 504.986 98.7122 496.073 93.773 487.511C88.8338 478.949 79.2024 479.29 73.7804 482.423C68.3584 485.556 60.4663 483.995 60.4663 483.995C60.4663 483.995 68.148 502.318 78.811 496.157Z" fill="#4E4D4C"/>
<path d="M237.166 422.165C234.929 417.688 229.212 414.892 223.271 413.262C220.406 412.476 217.69 412.015 215.685 411.751C215.331 411.705 215 411.664 214.695 411.63C214.638 412.251 214.596 413.007 214.597 413.889C214.598 416.805 215.058 421.116 216.962 426.474C217.746 428.681 219.545 430.847 222.094 432.898C224.617 434.929 227.691 436.699 230.727 438.166C233.751 439.627 236.666 440.752 238.83 441.514C239.141 441.623 239.437 441.725 239.714 441.819C239.888 440.578 240.053 438.967 240.103 437.124C240.22 432.723 239.671 427.178 237.166 422.165Z" fill="#F2F2F2" stroke="#4E4D4C" stroke-width="5"/>
<path d="M231.854 455.233C219.539 455.229 229.353 466.873 229.353 466.873C229.353 466.873 214.577 465.112 214.573 455.227C214.57 445.342 223.082 440.822 229.344 440.825C235.606 440.827 241.66 435.528 241.66 435.528C241.66 435.528 244.169 455.238 231.854 455.233Z" fill="#4E4D4C"/>
<path d="M105.389 358.448C87.6864 387.97 50.927 408.993 36.9407 398.433" stroke="#4E4D4C" stroke-width="5" stroke-linecap="round"/>
<path d="M139.676 349.561C168.872 367.062 208.871 368.829 217.105 350.158" stroke="#4E4D4C" stroke-width="5" stroke-linecap="round"/>
<path d="M153.149 311.507L155.483 343.601L122.276 349.565L90.2029 361.093L74.3944 332.609L153.149 311.507Z" fill="#F2F2F2"/>
<path d="M97.6732 608.639C108.697 507.528 180.786 526.903 195.723 479.014" stroke="#4E4D4C" stroke-width="5" stroke-linecap="round"/>
<path d="M215.084 582.28C235.185 543.826 225.589 501.396 225.589 501.396" stroke="#4E4D4C" stroke-width="5" stroke-linecap="round"/>
<path d="M157.542 555.31C217.867 528.759 207.87 491.447 207.87 491.447" stroke="#4E4D4C" stroke-width="5" stroke-linecap="round"/>
<path d="M244.22 573.007C261.089 536.288 235.634 494.03 235.634 494.03" stroke="#4E4D4C" stroke-width="5" stroke-linecap="round"/>
<path d="M236.438 483.946C238.591 491.983 233.831 500.234 225.815 502.382C217.8 504.53 209.551 499.764 207.398 491.728C205.245 483.691 210.005 475.44 218.021 473.292C226.037 471.144 234.285 475.91 236.438 483.946Z" fill="#F2F2F2" stroke="#4E4D4C" stroke-width="5"/>
<line x1="144.092" y1="427.68" x2="138.634" y2="407.312" stroke="#4E4D4C" stroke-width="5" stroke-linecap="round"/>
<path d="M357.433 572.766H478.433C485.337 572.766 490.933 578.362 490.933 585.266V592.818C438.817 600.366 391.377 599.803 344.933 592.829V585.266C344.933 578.362 350.53 572.766 357.433 572.766Z" fill="#D9D9D9" stroke="#4E4D4C" stroke-width="5"/>
<path d="M359.933 563.499H475.933V573.58C432.131 578.159 406.052 578.21 359.933 573.571V563.499Z" fill="#D9D9D9" stroke="#4E4D4C" stroke-width="5"/>
<path d="M360.368 548.672H475.535C479.621 548.672 482.933 551.984 482.933 556.07C482.933 559.859 480.085 563.008 476.363 563.348C438.223 566.835 395.418 566.85 359.469 563.399C355.761 563.043 352.933 559.896 352.933 556.107C352.933 552.001 356.262 548.672 360.368 548.672Z" fill="#D9D9D9" stroke="#4E4D4C" stroke-width="5"/>
<path d="M537.075 475.312L537.075 475.218V475.216L537.075 475.214V475.21L537.075 475.205C537.075 475.197 537.074 475.184 537.074 475.168C537.074 475.154 537.073 475.137 537.073 475.117C537.07 475.032 537.064 474.892 537.052 474.703C537.028 474.325 536.978 473.747 536.874 472.999C536.668 471.502 536.25 469.326 535.404 466.695C533.713 461.442 530.311 454.364 523.444 447.25C509.743 433.055 481.839 418.317 424.92 418.317C368.001 418.317 340.097 433.055 326.395 447.25C319.528 454.364 316.126 461.442 314.436 466.695C313.59 469.326 313.172 471.502 312.965 472.999C312.862 473.747 312.812 474.325 312.788 474.703C312.775 474.892 312.77 475.032 312.767 475.117C312.766 475.16 312.765 475.189 312.765 475.205L312.765 475.21L312.765 475.214L312.765 475.216L312.765 475.47L312.711 475.724L310.861 475.335C312.711 475.724 312.711 475.724 312.711 475.724L312.711 475.726L312.709 475.734L312.702 475.769L312.673 475.91C312.647 476.035 312.609 476.222 312.559 476.467C312.46 476.957 312.315 477.68 312.136 478.604C311.778 480.452 311.281 483.103 310.729 486.309C309.625 492.724 308.302 501.337 307.421 510.158C306.538 519.007 306.112 527.948 306.757 535.063C307.08 538.628 307.662 541.606 308.518 543.843C309.387 546.114 310.41 547.294 311.397 547.795C311.924 548.063 313.184 548.438 315.385 548.833C317.498 549.212 320.242 549.571 323.549 549.906C330.158 550.576 338.881 551.137 349.035 551.587C369.335 552.488 395.236 552.939 421.134 552.938C447.032 552.938 472.894 552.488 493.117 551.587C503.232 551.137 511.906 550.576 518.457 549.906C521.735 549.571 524.445 549.212 526.522 548.834C528.695 548.438 529.897 548.066 530.368 547.816C531.35 547.295 532.454 546.044 533.512 543.706C534.546 541.42 535.399 538.402 536.075 534.825C537.427 527.679 538.003 518.717 538.157 509.867C538.31 501.039 538.042 492.422 537.735 486.004C537.581 482.798 537.418 480.145 537.293 478.297C537.231 477.372 537.178 476.649 537.141 476.158C537.123 475.913 537.108 475.726 537.098 475.601L537.087 475.46L537.084 475.425L537.084 475.417L537.083 475.415C537.083 475.415 537.083 475.415 539.575 475.21L537.083 475.415L537.075 475.312Z" fill="#E6E5E5" stroke="#4E4D4C" stroke-width="5"/>
<path d="M504.417 343.683C501.279 355.396 506.524 365.963 514.774 368.174C523.024 370.384 532.85 363.855 535.989 352.142C539.127 340.43 533.882 329.862 525.632 327.651C517.382 325.441 507.556 331.97 504.417 343.683Z" fill="#E6E5E5" stroke="#4E4D4C" stroke-width="5"/>
<path d="M524.829 340.195C515.585 332.924 500.867 343.691 505.784 358.759" stroke="#4E4D4C" stroke-width="5" stroke-linecap="round"/>
<path d="M335.438 345.957C338.577 357.67 333.331 368.238 325.081 370.448C316.832 372.659 307.005 366.13 303.867 354.417C300.728 342.704 305.974 332.136 314.223 329.926C322.473 327.715 332.3 334.245 335.438 345.957Z" fill="#E6E5E5" stroke="#4E4D4C" stroke-width="5"/>
<path d="M315.026 342.469C324.271 335.198 338.988 345.965 334.071 361.034" stroke="#4E4D4C" stroke-width="5" stroke-linecap="round"/>
<circle cx="420.401" cy="292.259" r="106.82" fill="#F2F2F2" stroke="#4E4D4C" stroke-width="10"/>
<circle cx="420.401" cy="336.74" r="94.4934" fill="#E6E5E5" stroke="#4E4D4C" stroke-width="5"/>
<ellipse cx="378.082" cy="325.311" rx="10.1936" ry="10.1936" fill="#4E4D4C"/>
<ellipse cx="461.793" cy="324.075" rx="10.5025" ry="10.1936" fill="#4E4D4C"/>
<ellipse cx="419.783" cy="291.332" rx="6.17792" ry="5.86903" fill="#4E4D4C"/>
<path d="M359.239 311.41H391.982" stroke="#4E4D4C" stroke-width="10" stroke-linecap="round" stroke-linejoin="round"/>
<path d="M454.379 299.673L486.007 308.147" stroke="#4E4D4C" stroke-width="10" stroke-linecap="round" stroke-linejoin="round"/>
<path d="M407.463 350.275C411.357 356.935 425.654 356.945 429.08 350.275C432.505 343.605 425.472 308.321 418.893 308.321C412.315 308.321 403.569 343.615 407.463 350.275Z" stroke="#4E4D4C" stroke-width="5" stroke-linecap="round" stroke-linejoin="round"/>
<path d="M436.931 377.514C430.881 387.689 416.463 390.409 407.118 382.764" stroke="#4E4D4C" stroke-width="10" stroke-linecap="round" stroke-linejoin="round"/>
<path d="M332.983 302.145C357.695 240.983 439.243 203.915 506.675 228.636" stroke="#4E4D4C" stroke-width="5" stroke-linecap="round"/>
<path d="M322.79 329.938C327.114 252.413 364.799 222.448 401.867 211.021" stroke="#4E4D4C" stroke-width="5" stroke-linecap="round"/>
<path d="M515.232 331.489C519.831 302.764 510.598 265.078 489.9 250.252" stroke="#4E4D4C" stroke-width="5" stroke-linecap="round"/>
<path d="M376.009 423.231C393.968 455.897 402.383 469.529 423.276 481.788" stroke="#4E4D4C" stroke-width="5" stroke-linecap="round"/>
<path d="M366.742 429.409C376.855 464.908 390.72 492.069 402.176 502.617" stroke="#4E4D4C" stroke-width="5" stroke-linecap="round"/>
<path d="M341.014 550.496C435.329 500.281 471.74 420.512 466.735 422.304" stroke="#4E4D4C" stroke-width="5" stroke-linecap="round"/>
<path d="M390.127 551.421C461.067 502.37 476.012 433.009 479.708 425.081" stroke="#4E4D4C" stroke-width="5" stroke-linecap="round"/>
<path d="M417.312 551.423C465.808 516.826 489.283 443.31 489.283 428.174" stroke="#4E4D4C" stroke-width="5" stroke-linecap="round"/>
</svg>
