<svg width="120" height="121" viewBox="0 0 120 121" fill="none" xmlns="http://www.w3.org/2000/svg">
<path fill-rule="evenodd" clip-rule="evenodd" d="M47.0862 9.60588L47.0862 9.57996C47.0862 4.28909 51.3753 0 56.6662 0C61.957 0 66.2461 4.28908 66.2461 9.57994H66.2462V12.9632C71.1199 14.2951 75.66 17.1198 79.7697 20.9144L78.0397 29.5644L66.4353 25.7413L61.3215 35.5758L54.7003 35.205L61.8927 40.1262L68.8959 32.3659L80.4416 35.205L87.7445 30.1438C97.2273 43.5705 102.965 61.5317 102.965 73.2492V73.266L81.9558 61.1362V85.3958L102.965 73.266C102.957 96.9895 85.546 120.757 60 120.757C34.4479 120.757 17.0347 96.9783 17.0347 73.2492C17.0347 65.4231 19.5943 54.8118 24.1198 44.6266L23.1706 43.6774L23.1256 43.6327C19.3844 39.8915 19.3844 33.8258 23.1256 30.0846C25.5907 27.6196 29.0649 26.7787 32.2185 27.5621L30.9602 25.3828L30.9338 25.3373C28.2884 20.7552 29.8583 14.8962 34.4403 12.2508C38.7828 9.74365 44.2723 11.0227 47.0862 15.0636V9.60588ZM63.7855 82.1451C58.8724 82.1451 54.8896 78.1623 54.8896 73.2492C54.8896 68.3361 58.8724 64.3533 63.7855 64.3533C68.6986 64.3533 72.6814 68.3361 72.6814 73.2492C72.6814 78.1623 68.6986 82.1451 63.7855 82.1451Z" fill="#E6BA38"/>
<path fill-rule="evenodd" clip-rule="evenodd" d="M90.9084 15.839L83.4783 12.4883L83.4782 25.3627L90.9084 15.839ZM95.4154 27.3627L94.8231 21.3996L86.6877 25.6909L95.4154 27.3627Z" fill="#E6BA38"/>
</svg>
