<svg width="565" height="565" viewBox="0 0 565 565" fill="none" xmlns="http://www.w3.org/2000/svg">
<path d="M479.793 244.734L396.148 222.322C392.023 221.217 387.62 222.293 384.471 225.177L348.035 258.544C343.669 262.542 345.44 269.787 351.159 271.319L429.507 292.312C436.932 294.302 444.858 292.364 450.526 287.172L482.917 257.51C487.284 253.511 485.512 246.267 479.793 244.734Z" fill="#4E4D4C" stroke="#F2F2F2" stroke-width="5"/>
<path d="M477.793 233.734L394.148 211.322C390.023 210.217 385.62 211.293 382.471 214.177L346.035 247.544C341.669 251.542 343.44 258.787 349.159 260.319L430.156 282.022C435.93 283.569 442.095 282.062 446.504 278.024L480.917 246.51C485.284 242.511 483.512 235.267 477.793 233.734Z" fill="#4E4D4C" stroke="#F2F2F2" stroke-width="5"/>
<path d="M474.793 222.734L391.148 200.322C387.023 199.217 382.62 200.293 379.471 203.177L343.035 236.544C338.669 240.542 340.44 247.787 346.159 249.319L429.804 271.732C433.929 272.837 438.333 271.76 441.482 268.876L477.917 235.51C482.284 231.511 480.512 224.267 474.793 222.734Z" fill="#4E4D4C" stroke="#F2F2F2" stroke-width="5"/>
<path d="M540.118 356.793C540.118 345.375 532.503 335.2 522.088 335.2L427.469 335.2C417.053 335.2 409.438 345.375 409.438 356.793L409.438 429.053C409.438 440.471 417.053 450.646 427.469 450.646L522.088 450.646C532.503 450.646 540.118 440.471 540.118 429.053L540.118 356.793Z" fill="#F2F2F2" stroke="#4E4D4C" stroke-width="5"/>
<path d="M475.948 410.172H470.452C470.452 407.364 470.747 404.899 471.336 402.776C471.925 400.585 472.939 398.428 474.378 396.305C475.883 394.114 477.944 391.648 480.561 388.909C482.851 386.513 484.487 384.219 485.468 382.027C486.45 379.836 486.94 377.371 486.94 374.632C486.94 370.523 485.926 367.373 483.898 365.182C481.935 362.922 479.122 361.792 475.458 361.792C472.841 361.792 470.485 362.306 468.392 363.333C466.363 364.291 465.349 365.456 465.349 366.825C466.658 367.578 467.672 368.64 468.392 370.009C469.177 371.31 469.569 372.714 469.569 374.221C469.569 376.138 468.948 377.713 467.705 378.946C466.527 380.178 464.989 380.795 463.092 380.795C460.998 380.795 459.264 379.973 457.89 378.329C456.582 376.617 455.927 374.46 455.927 371.858C455.927 368.914 456.811 366.277 458.577 363.949C460.409 361.552 462.863 359.669 465.938 358.3C469.078 356.862 472.546 356.143 476.341 356.143C480.398 356.143 483.963 356.896 487.038 358.402C490.114 359.909 492.502 362.032 494.203 364.771C495.969 367.441 496.853 370.523 496.853 374.015C496.853 377.097 496.133 379.973 494.694 382.644C493.32 385.314 490.931 388.259 487.529 391.477C484.454 394.422 482.066 396.921 480.365 398.975C478.729 400.961 477.584 402.81 476.93 404.522C476.276 406.234 475.948 408.117 475.948 410.172ZM467.116 425.887C467.116 423.901 467.672 422.326 468.784 421.162C469.896 419.998 471.368 419.416 473.2 419.416C475.098 419.416 476.57 419.998 477.617 421.162C478.729 422.326 479.285 423.901 479.285 425.887C479.285 427.873 478.762 429.448 477.715 430.612C476.668 431.708 475.196 432.256 473.299 432.256C471.401 432.256 469.896 431.708 468.784 430.612C467.672 429.448 467.116 427.873 467.116 425.887Z" fill="#4E4D4C"/>
<path d="M310.074 362.097C308.142 362.168 306.634 363.791 306.704 365.723L307.854 397.202C307.925 399.134 309.548 400.642 311.48 400.572C313.412 400.501 314.92 398.878 314.85 396.946L313.827 368.965L341.809 367.942C343.74 367.872 345.249 366.249 345.178 364.317C345.108 362.385 343.485 360.877 341.553 360.947L310.074 362.097ZM368.729 395.668C370.658 395.548 372.125 393.887 372.006 391.958C371.886 390.029 370.225 388.562 368.296 388.681L368.729 395.668ZM368.296 388.681C349.341 389.855 332.307 381.363 312.585 363.032L307.819 368.159C328.158 387.064 347.001 397.014 368.729 395.668L368.296 388.681Z" fill="#4E4D4C"/>
<path d="M111.688 393.596H232.688C239.591 393.596 245.188 399.192 245.188 406.096V408.875C193.078 414.979 145.634 414.524 99.1875 408.885V406.096C99.1875 399.192 104.784 393.596 111.688 393.596Z" fill="#D9D9D9" stroke="#4E4D4C" stroke-width="5"/>
<path d="M114.188 386.096H230.188V393.303C186.397 397.007 160.291 397.048 114.188 393.296V386.096Z" fill="#D9D9D9" stroke="#4E4D4C" stroke-width="5"/>
<path d="M112.645 374.096H231.754C234.755 374.096 237.188 376.528 237.188 379.529C237.188 382.354 235.035 384.687 232.254 384.899C193.132 387.884 148.903 387.895 112.104 384.935C109.331 384.712 107.188 382.379 107.188 379.553C107.188 376.539 109.631 374.096 112.645 374.096Z" fill="#D9D9D9" stroke="#4E4D4C" stroke-width="5"/>
<path d="M262.898 315.619L262.889 315.517V315.496C262.883 315.447 262.862 315.329 262.809 315.149C262.702 314.783 262.453 314.141 261.877 313.301C260.728 311.623 258.205 309.057 252.697 306.378C241.611 300.986 218.87 295.346 172.595 295.346C126.321 295.346 103.579 300.986 92.4939 306.378C86.9853 309.057 84.4627 311.624 83.3132 313.301C82.7375 314.141 82.4883 314.783 82.381 315.149C82.3281 315.329 82.3079 315.447 82.3011 315.496L82.3011 315.674L82.2475 315.928L82.1394 315.906C82.2475 315.928 82.2475 315.928 82.2475 315.929L82.2472 315.93L82.2459 315.936L82.2402 315.964L82.2167 316.077C82.1959 316.177 82.165 316.328 82.1249 316.526C82.0447 316.922 81.9281 317.505 81.7835 318.252C81.4942 319.745 81.0929 321.887 80.6468 324.477C79.7539 329.663 78.6853 336.622 77.9741 343.746C77.2602 350.898 76.9191 358.099 77.437 363.812C77.6965 366.676 78.1615 369.038 78.8326 370.791C79.5163 372.578 80.2855 373.406 80.933 373.735C81.2911 373.917 82.2483 374.211 84.0288 374.53C85.7223 374.834 87.9296 375.123 90.6003 375.394C95.9364 375.935 102.986 376.389 111.2 376.753C127.621 377.481 148.576 377.846 169.531 377.846C190.487 377.846 211.411 377.481 227.768 376.753C235.951 376.388 242.961 375.935 248.249 375.394C250.896 375.123 253.076 374.834 254.74 374.531C256.499 374.211 257.405 373.92 257.714 373.756C258.372 373.406 259.209 372.507 260.048 370.654C260.864 368.852 261.545 366.45 262.089 363.574C263.175 357.83 263.641 350.608 263.765 343.455C263.889 336.324 263.672 329.361 263.424 324.173C263.3 321.581 263.168 319.438 263.067 317.944C263.017 317.197 262.974 316.614 262.944 316.217C262.929 316.02 262.918 315.869 262.91 315.768L262.901 315.655L262.898 315.627L262.898 315.62L262.898 315.619C262.898 315.619 262.898 315.619 263.136 315.599L262.898 315.619Z" fill="#E6E5E5" stroke="#4E4D4C" stroke-width="5"/>
<circle cx="92.1875" cy="316.846" r="15" fill="#E6E5E5" stroke="#4E4D4C" stroke-width="5"/>
<circle cx="255.688" cy="315.846" r="15" fill="#E6E5E5" stroke="#4E4D4C" stroke-width="5"/>
<path d="M101.761 211.174C103.562 217.895 103.579 224.285 102.272 229.14C100.947 234.067 98.4387 236.911 95.5727 237.679C92.7066 238.447 89.1129 237.238 85.5011 233.634C81.9423 230.083 78.7619 224.54 76.961 217.819C75.1602 211.098 75.1433 204.708 76.4496 199.853C77.7755 194.926 80.2833 192.082 83.1493 191.314C86.0154 190.546 89.6091 191.755 93.2209 195.359C96.7797 198.911 99.9601 204.453 101.761 211.174Z" fill="#F2F2F2" stroke="#4E4D4C" stroke-width="5"/>
<path d="M84.8906 205.584C92.038 198.257 105.175 211.342 102.255 227.647" stroke="#4E4D4C" stroke-width="5" stroke-linecap="round"/>
<path d="M243.275 211.174C241.474 217.895 241.457 224.285 242.764 229.14C244.09 234.067 246.597 236.911 249.463 237.679C252.329 238.447 255.923 237.238 259.535 233.634C263.094 230.083 266.274 224.54 268.075 217.819C269.876 211.098 269.893 204.708 268.586 199.853C267.261 194.926 264.753 192.082 261.887 191.314C259.021 190.546 255.427 191.755 251.815 195.359C248.256 198.911 245.076 204.453 243.275 211.174Z" fill="#F2F2F2" stroke="#4E4D4C" stroke-width="5"/>
<path d="M260.146 205.584C252.998 198.257 239.861 211.342 242.781 227.647" stroke="#4E4D4C" stroke-width="5" stroke-linecap="round"/>
<path d="M94.7377 180.723L94.7378 180.724L94.738 180.725L94.8837 181.781L94.296 182.521C94.283 182.546 94.2643 182.583 94.2409 182.634C94.1437 182.847 93.9665 183.297 93.7847 184.072C93.4195 185.629 93.0459 188.453 93.2411 193.201C93.6322 202.714 96.2935 219.699 105.562 249.195C114.445 277.466 142.151 292.182 170.554 292.344C198.941 292.507 227.142 278.12 236.949 249.143C239.464 241.711 241.635 235.332 243.509 229.827C249.287 212.846 252.236 204.181 253.737 198.588C255.264 192.894 255.232 190.684 255.159 185.547C255.141 184.268 255.12 182.806 255.12 181.064C255.12 180.868 255.12 180.669 255.12 180.466C255.126 171.744 255.135 157.171 245.303 144.561C235.321 131.758 214.631 120.346 171.188 120.346C128.039 120.346 109.272 135.839 101.039 150.668C96.8638 158.188 95.2846 165.731 94.7558 171.417C94.4919 174.255 94.4913 176.614 94.5552 178.25C94.5871 179.067 94.635 179.702 94.6739 180.125C94.6933 180.336 94.7104 180.494 94.722 180.595C94.7279 180.645 94.7323 180.681 94.7351 180.703L94.7375 180.722L94.7377 180.723Z" fill="#F2F2F2" stroke="#4E4D4C" stroke-width="5"/>
<path d="M120.938 287.095C120.938 287.095 118.688 299.843 126.938 302.595C135.188 305.348 141.187 302.595 141.187 302.595C141.187 302.595 141.938 316.345 154.688 319.845C167.438 323.345 173.437 314.348 173.437 314.348C173.437 314.348 179.188 322.845 191.438 319.845C203.688 316.845 206.437 302.595 206.437 302.595C206.437 302.595 209.438 306.658 218.688 302.595C227.938 298.533 225.187 287.095 225.187 287.095C252.938 287.095 249.579 237.395 244.688 226.347C244.688 226.347 233.937 238.093 225.187 244.845C216.437 251.597 206.437 256.595 206.437 256.595C199.481 252.996 192.687 242.105 173.437 241.85C154.188 241.595 148.399 251.113 141.187 254.845C141.187 254.845 127.937 251.597 119.687 244.845C111.438 238.093 99.6875 226.347 99.6875 226.347C95.6808 238.033 96.9384 287.095 120.938 287.095Z" fill="#E6E5E5" stroke="#4E4D4C" stroke-width="5" stroke-linecap="round" stroke-linejoin="round"/>
<circle cx="135.938" cy="204.096" r="8.25" fill="#4E4D4C"/>
<ellipse cx="208.688" cy="204.096" rx="8.5" ry="8.25" fill="#4E4D4C"/>
<path d="M121.188 189.346C127.948 182.085 140.791 181.94 147.687 189.346" stroke="#4E4D4C" stroke-width="10" stroke-linecap="round" stroke-linejoin="round"/>
<path d="M201.188 178.846C207.948 171.585 220.791 171.44 227.687 178.846" stroke="#4E4D4C" stroke-width="10" stroke-linecap="round" stroke-linejoin="round"/>
<path d="M185.188 260.846C178.81 268.107 166.693 268.251 160.188 260.846" stroke="#4E4D4C" stroke-width="10" stroke-linecap="round" stroke-linejoin="round"/>
<path d="M181.73 191.346C181.73 191.346 189.509 221.503 181.73 225.202C173.951 228.9 160.188 225.202 160.188 225.202" stroke="#4E4D4C" stroke-width="5" stroke-linecap="round"/>
<path d="M206.688 270.346C206.687 248.146 183.777 239.846 183.777 239.846C176.386 245.009 170.474 245.492 162.344 239.846C162.344 239.846 139.188 245.733 139.188 270.346" stroke="#4E4D4C" stroke-width="10" stroke-linecap="round" stroke-linejoin="round"/>
<path d="M225.604 290.462C225.604 290.462 218.022 284.904 220.187 277.845" stroke="#4E4D4C" stroke-width="5" stroke-linecap="round"/>
<path d="M120.463 290.462C120.463 290.462 128.044 284.904 125.879 277.845" stroke="#4E4D4C" stroke-width="5" stroke-linecap="round"/>
<path d="M172.809 105.596C125.559 105.596 109.31 125.22 109.31 137.846C94.8096 137.846 80.7663 146.137 96.3097 175.848C100.52 175.848 105.349 174.848 109.31 169.098C113.27 163.348 109.31 137.846 109.31 137.846C109.31 137.846 131.059 138.847 139.809 130.846C140.627 130.098 148.559 118.596 157.809 128.096C167.059 137.596 181.309 138.596 192.809 128.096C204.309 117.596 211.362 130.112 212.309 130.846C222.309 138.596 238.309 135.846 238.309 135.846C238.309 135.846 235.333 164.981 240.81 171.848C245.125 177.26 252.771 179.348 258.06 179.348C273.139 147.392 249.809 135.846 238.309 135.846C238.309 120.846 220.059 105.596 172.809 105.596Z" fill="#E6E5E5"/>
<path d="M238.309 135.846C238.309 135.846 222.309 138.596 212.309 130.846C211.362 130.112 204.309 117.596 192.809 128.096C181.309 138.596 167.059 137.596 157.809 128.096C148.559 118.596 140.627 130.098 139.809 130.846C131.059 138.847 109.31 137.846 109.31 137.846M238.309 135.846C238.309 135.846 235.333 164.981 240.81 171.848C245.125 177.26 252.771 179.348 258.06 179.348C273.139 147.392 249.809 135.846 238.309 135.846ZM238.309 135.846C238.309 120.846 220.059 105.596 172.809 105.596C125.559 105.596 109.31 125.22 109.31 137.846M109.31 137.846C109.31 137.846 113.27 163.348 109.31 169.098C105.349 174.848 100.52 175.848 96.3097 175.848C80.7663 146.137 94.8096 137.846 109.31 137.846Z" stroke="#4E4D4C" stroke-width="5" stroke-linejoin="round"/>
<path d="M103.688 307.346C155.935 345.073 186.522 344.283 243.187 307.346" stroke="#4E4D4C" stroke-width="5"/>
<path d="M105.401 325.931C132.529 358.922 181.361 367.031 230.872 342.311" stroke="#4E4D4C" stroke-width="5" stroke-linecap="round"/>
</svg>
