<svg width="585" height="584" viewBox="0 0 585 584" fill="none" xmlns="http://www.w3.org/2000/svg">
<path d="M279.088 231.334C273.433 234.599 270.525 241.568 273.755 247.162L299.772 292.226C303.002 297.82 310.492 298.786 316.146 295.521L349.028 276.537C354.682 273.272 357.59 266.303 354.361 260.709L328.343 215.646C325.113 210.051 317.624 209.086 311.969 212.35L279.088 231.334Z" fill="#F2F2F2" stroke="#4E4D4C" stroke-width="5"/>
<path d="M318.181 260.223L315.564 261.735C314.826 260.457 314.318 259.254 314.041 258.126C313.746 256.967 313.662 255.707 313.79 254.345C313.931 252.934 314.265 251.246 314.792 249.28C315.253 247.559 315.429 246.066 315.321 244.799C315.212 243.532 314.799 242.275 314.079 241.028C312.999 239.159 311.689 238.004 310.147 237.565C308.619 237.076 306.982 237.336 305.237 238.343C303.99 239.063 303.004 239.944 302.276 240.987C301.562 241.981 301.385 242.79 301.745 243.413C302.566 243.396 303.328 243.6 304.03 244.025C304.746 244.402 305.302 244.932 305.698 245.618C306.201 246.49 306.319 247.378 306.051 248.281C305.814 249.166 305.244 249.869 304.34 250.39C303.343 250.966 302.301 251.069 301.215 250.699C300.142 250.28 299.264 249.478 298.58 248.294C297.806 246.954 297.534 245.512 297.764 243.966C298.007 242.372 298.681 240.84 299.785 239.372C300.903 237.854 302.366 236.573 304.173 235.529C306.105 234.414 308.001 233.776 309.862 233.616C311.722 233.456 313.417 233.766 314.947 234.544C316.49 235.274 317.72 236.433 318.638 238.022C319.447 239.425 319.86 240.931 319.876 242.542C319.924 244.135 319.56 246.132 318.785 248.532C318.094 250.718 317.613 252.512 317.343 253.914C317.086 255.268 317.026 256.424 317.164 257.383C317.302 258.342 317.641 259.288 318.181 260.223ZM318.103 269.803C317.581 268.9 317.433 268.03 317.656 267.195C317.88 266.359 318.429 265.689 319.301 265.186C320.205 264.664 321.059 264.524 321.863 264.766C322.699 264.99 323.377 265.554 323.899 266.457C324.421 267.361 324.585 268.221 324.393 269.039C324.182 269.825 323.625 270.48 322.721 271.001C321.817 271.523 320.957 271.688 320.139 271.495C319.304 271.271 318.625 270.707 318.103 269.803Z" fill="#4E4D4C"/>
<path d="M108.347 399.615L225.224 368.297C231.893 366.511 238.747 370.468 240.534 377.136L241.253 379.821C192.499 399.203 146.554 411.044 100.23 417.618L99.5085 414.924C97.7218 408.256 101.679 401.401 108.347 399.615Z" fill="#D9D9D9" stroke="#4E4D4C" stroke-width="5"/>
<path d="M108.821 391.724L220.869 361.701L222.734 368.663C181.394 383.574 156.188 390.371 110.685 398.679L108.821 391.724Z" fill="#D9D9D9" stroke="#4E4D4C" stroke-width="5"/>
<path d="M104.225 380.531L219.276 349.703C222.174 348.927 225.154 350.647 225.93 353.545C226.662 356.274 225.186 359.085 222.555 360.009C185.538 373.018 142.82 384.476 106.508 391.141C103.772 391.644 101.098 389.945 100.366 387.215C99.5861 384.304 101.314 381.311 104.225 380.531Z" fill="#D9D9D9" stroke="#4E4D4C" stroke-width="5"/>
<path d="M236.41 285.35L236.375 285.254L236.351 285.161L236.35 285.158L236.35 285.158C236.347 285.148 236.341 285.128 236.332 285.097C236.324 285.07 236.313 285.035 236.299 284.993C236.282 284.939 236.26 284.872 236.234 284.793C236.139 284.512 235.983 284.082 235.75 283.53C235.285 282.426 234.514 280.837 233.319 278.983C230.931 275.284 226.839 270.518 220.051 266.437C206.515 258.299 181.759 252.606 137.337 264.509C92.9156 276.412 74.3232 293.72 66.6694 307.535C62.831 314.464 61.6703 320.637 61.4525 325.035C61.3434 327.238 61.4709 328.999 61.62 330.188C61.6946 330.783 61.7744 331.233 61.8325 331.523C61.8616 331.668 61.8851 331.773 61.8998 331.836C61.9071 331.867 61.9123 331.888 61.9147 331.897C61.9152 331.899 61.9155 331.901 61.9158 331.902L61.9811 332.145L61.9953 332.405L61.8838 332.411C61.9953 332.405 61.9953 332.405 61.9953 332.405L61.9953 332.406L61.9957 332.413L61.9973 332.441L62.0039 332.556C62.0098 332.659 62.019 332.813 62.0315 333.014C62.0565 333.417 62.0949 334.011 62.1483 334.769C62.2552 336.286 62.4222 338.459 62.6618 341.077C63.1414 346.317 63.9102 353.315 65.0672 360.381C66.2286 367.473 67.7628 374.517 69.7419 379.903C70.7336 382.601 71.7941 384.762 72.8962 386.282C74.0189 387.831 74.9763 388.432 75.6869 388.582C76.0799 388.665 77.0806 388.701 78.8831 388.549C80.5975 388.404 82.8044 388.112 85.4541 387.682C90.7484 386.824 97.6754 385.437 105.704 383.663C121.753 380.117 142.089 375.045 162.33 369.622C182.572 364.198 202.688 358.43 218.3 353.493C226.11 351.023 232.763 348.771 237.731 346.88C240.218 345.933 242.249 345.09 243.778 344.367C245.394 343.602 246.194 343.086 246.45 342.848C246.995 342.34 247.571 341.255 247.901 339.248C248.223 337.296 248.259 334.8 248.04 331.88C247.603 326.051 246.184 318.955 244.452 312.013C242.726 305.093 240.715 298.423 239.132 293.477C238.341 291.006 237.659 288.969 237.175 287.553C236.933 286.844 236.741 286.291 236.61 285.916C236.544 285.729 236.494 285.586 236.46 285.491L236.422 285.384L236.413 285.358L236.41 285.352L236.41 285.35C236.41 285.35 236.41 285.35 236.635 285.27L236.41 285.35Z" fill="#E6E5E5" stroke="#4E4D4C" stroke-width="5"/>
<path d="M140.969 370.168L100.209 285.845L171.977 266.614L174.259 361.248L140.969 370.168Z" fill="#F2F2F2" stroke="#4E4D4C" stroke-width="5"/>
<path d="M60.4675 226.505C63.6531 232.023 65.0734 237.726 64.9058 242.415C64.7367 247.145 63.0037 250.444 60.35 251.976C57.6962 253.509 53.9724 253.36 49.7917 251.141C45.6471 248.942 41.418 244.86 38.2324 239.343C35.0469 233.825 33.6265 228.122 33.7941 223.433C33.9632 218.703 35.6962 215.403 38.35 213.871C41.0037 212.339 44.7275 212.488 48.9082 214.707C53.0528 216.906 57.2819 220.988 60.4675 226.505Z" fill="#F2F2F2" stroke="#4E4D4C" stroke-width="5"/>
<path d="M43.0937 226.111C48.2985 217.525 63.7696 225.716 64.6034 241.241" stroke="#4E4D4C" stroke-width="5" stroke-linecap="round"/>
<path d="M177.66 195.104C177.66 201.475 179.282 207.124 181.771 211.101C184.283 215.113 187.433 217.104 190.498 217.104C193.562 217.104 196.712 215.113 199.224 211.101C201.713 207.124 203.335 201.475 203.335 195.104C203.335 188.732 201.713 183.083 199.224 179.106C196.712 175.094 193.562 173.104 190.498 173.104C187.433 173.104 184.283 175.094 181.771 179.106C179.282 183.083 177.66 188.732 177.66 195.104Z" fill="#F2F2F2" stroke="#4E4D4C" stroke-width="5"/>
<path d="M192.509 186.074C183.709 181.241 174.406 196.071 181.446 209.932" stroke="#4E4D4C" stroke-width="5" stroke-linecap="round"/>
<path d="M43.3097 197.598L43.31 197.599L43.3104 197.6L43.6067 198.448L43.3332 199.184C43.3279 199.212 43.3205 199.257 43.3127 199.319C43.2823 199.557 43.2451 200.046 43.2893 200.85C43.3779 202.465 43.7913 205.303 45.1943 209.861C48.0037 218.989 54.7129 234.8 70.3651 261.15C100.474 311.837 181.469 291.564 183.439 230.803C183.69 223.046 183.916 216.384 184.111 210.633C184.713 192.887 185.021 183.825 184.87 178.067C184.717 172.179 184.109 170.021 182.713 165.067C182.366 163.836 181.971 162.432 181.521 160.756C181.311 159.969 181.095 159.133 180.869 158.256C178.647 149.625 175.394 136.989 165.23 127.937C154.239 118.149 134.455 112.06 96.9768 122.102C59.8359 132.054 46.7571 151.13 42.6381 167.288C40.5506 175.477 40.7214 183.085 41.4238 188.663C41.7744 191.447 42.2555 193.709 42.645 195.264C42.8396 196.041 43.011 196.639 43.1312 197.036C43.1913 197.235 43.2385 197.383 43.2694 197.477C43.2848 197.524 43.2961 197.558 43.3029 197.578L43.3093 197.597L43.3097 197.598Z" fill="#F2F2F2" stroke="#4E4D4C" stroke-width="5"/>
<path d="M81.0674 194.694C76.0239 196.045 71.7304 199.369 69.1313 203.935C66.5323 208.5 65.8407 213.933 67.2087 219.039L71.4346 217.906C70.3706 213.935 70.9085 209.71 72.93 206.159C74.9515 202.608 78.2909 200.022 82.2136 198.971C85.0156 198.22 88.0047 198.627 90.5234 200.102C93.0421 201.576 94.884 203.998 95.644 206.835C96.4039 209.671 96.0197 212.689 94.5758 215.226C93.1319 217.762 90.7466 219.609 87.9446 220.36C86.2635 220.81 84.47 220.566 82.9588 219.681C81.4476 218.796 80.3424 217.343 79.8865 215.642C79.4305 213.94 79.661 212.129 80.5273 210.607C81.3937 209.085 82.8249 207.977 84.506 207.527C85.0664 207.376 85.6643 207.458 86.168 207.753C86.6717 208.048 87.0401 208.532 87.1921 209.099C87.3441 209.667 87.2673 210.27 86.9785 210.777C86.6897 211.285 86.2126 211.654 85.6522 211.804L83.5393 212.37L84.6855 216.648L86.7984 216.082C88.4796 215.631 89.9108 214.523 90.7771 213.002C91.6435 211.48 91.874 209.669 91.418 207.967C90.962 206.265 89.8569 204.812 88.3457 203.927C86.8345 203.042 85.041 202.798 83.3598 203.249C80.5579 204 78.1726 205.846 76.7287 208.383C75.2848 210.919 74.9005 213.938 75.6605 216.774C76.4205 219.61 78.2624 222.032 80.7811 223.507C83.2998 224.981 86.2889 225.388 89.0908 224.637C93.0136 223.586 96.353 221.001 98.3745 217.45C100.396 213.899 100.934 209.673 99.8699 205.702C98.8059 201.731 96.2272 198.341 92.7011 196.276C89.1749 194.212 84.9902 193.642 81.0674 194.694Z" fill="#4E4D4C"/>
<path d="M148.682 176.576C143.639 177.928 139.345 181.252 136.746 185.817C134.147 190.383 133.456 195.816 134.824 200.921L139.05 199.789C137.986 195.818 138.524 191.593 140.545 188.042C142.566 184.491 145.906 181.905 149.829 180.854C152.631 180.103 155.62 180.51 158.138 181.985C160.657 183.459 162.499 185.881 163.259 188.717C164.019 191.554 163.635 194.572 162.191 197.108C160.747 199.645 158.362 201.492 155.56 202.242C153.878 202.693 152.085 202.449 150.574 201.564C149.063 200.679 147.957 199.226 147.501 197.524C147.045 195.823 147.276 194.012 148.142 192.49C149.009 190.968 150.44 189.86 152.121 189.409C152.681 189.259 153.279 189.341 153.783 189.636C154.287 189.93 154.655 190.415 154.807 190.982C154.959 191.549 154.882 192.153 154.593 192.66C154.305 193.168 153.828 193.537 153.267 193.687L151.154 194.253L152.3 198.531L154.413 197.965C156.095 197.514 157.526 196.406 158.392 194.884C159.258 193.363 159.489 191.551 159.033 189.85C158.577 188.148 157.472 186.695 155.961 185.81C154.449 184.925 152.656 184.681 150.975 185.132C148.173 185.883 145.788 187.729 144.344 190.266C142.9 192.802 142.516 195.82 143.276 198.657C144.035 201.493 145.877 203.915 148.396 205.39C150.915 206.864 153.904 207.271 156.706 206.52C160.629 205.469 163.968 202.884 165.989 199.333C168.011 195.782 168.549 191.556 167.485 187.585C166.421 183.614 163.842 180.224 160.316 178.159C156.79 176.095 152.605 175.525 148.682 176.576Z" fill="#4E4D4C"/>
<path d="M111.896 236.961C118.4 241.692 136.34 236.894 139.017 229.694C141.694 222.494 124.93 193.293 116.676 195.504C108.422 197.716 105.393 232.231 111.896 236.961Z" fill="#E6E5E5" stroke="#4E4D4C" stroke-width="5" stroke-linecap="round" stroke-linejoin="round"/>
<circle cx="83.7515" cy="210.021" r="24.5" transform="rotate(-15 83.7515 210.021)" stroke="#4E4D4C" stroke-width="5"/>
<circle cx="151.366" cy="191.903" r="24.5" transform="rotate(-15 151.366 191.903)" stroke="#4E4D4C" stroke-width="5"/>
<path d="M94.7879 173.935C104.997 166.966 111.62 165.377 124.732 165.911" stroke="#4E4D4C" stroke-width="5" stroke-linecap="round"/>
<path d="M96.7706 162.015C103.887 158.072 108.213 156.845 116.572 156.71" stroke="#4E4D4C" stroke-width="5" stroke-linecap="round"/>
<path d="M27.3271 139.502C58.7017 127.569 64.3725 107.578 101.535 105.011C138.697 102.443 160.454 122.467 160.454 122.467C160.454 122.467 118.109 141.287 86.6876 149.706C55.2656 158.126 44.9469 150.759 27.3271 139.502Z" fill="#4E4D4C"/>
<path d="M52.2411 150.136L68.623 150.664C51.9137 169.117 47.8599 181.601 47.2876 206.85C39.5391 185.164 40.1594 166.115 52.2411 150.136Z" fill="#4E4D4C"/>
<path d="M154.268 122.798L145.837 133.598C165.29 143.914 169.961 147.331 183.018 168.928C177.775 145.083 171.048 129.706 154.268 122.798Z" fill="#4E4D4C"/>
<path d="M138.744 290.424C138.744 290.424 149.393 294.812 149.876 299.145C150.359 303.479 146.52 312.136 144.596 312.265C142.672 312.393 134.331 306.781 133.464 303.543C132.596 300.305 138.744 290.424 138.744 290.424Z" fill="#4E4D4C"/>
<path d="M147.036 369.545C138.05 336.01 138.166 305.956 142.783 304.034C147.4 302.111 161.82 333.265 169.9 363.419L147.036 369.545Z" fill="#4E4D4C"/>
<path d="M139.004 288.234L163.321 304.134" stroke="#4E4D4C" stroke-width="5"/>
<path d="M137.793 288.559L125.167 314.357" stroke="#4E4D4C" stroke-width="5"/>
<circle cx="130.137" cy="252.979" r="7" transform="rotate(-15 130.137 252.979)" fill="#4E4D4C"/>
<path d="M351.087 387.166L467.964 418.483C474.632 420.27 478.589 427.124 476.803 433.793L476.083 436.477C424.17 428.886 378.46 416.168 335.056 398.699L335.777 396.005C337.564 389.337 344.418 385.379 351.087 387.166Z" fill="#D9D9D9" stroke="#4E4D4C" stroke-width="5"/>
<path d="M355.443 380.569L467.49 410.592L465.624 417.554C422.368 409.797 397.14 403.081 353.579 387.524L355.443 380.569Z" fill="#D9D9D9" stroke="#4E4D4C" stroke-width="5"/>
<path d="M357.059 368.579L472.109 399.407C475.008 400.183 476.728 403.162 475.951 406.061C475.22 408.79 472.537 410.486 469.796 409.971C431.234 402.729 388.51 391.293 353.731 378.909C351.109 377.976 349.643 375.168 350.375 372.438C351.155 369.527 354.147 367.799 357.059 368.579Z" fill="#D9D9D9" stroke="#4E4D4C" stroke-width="5"/>
<path d="M519.57 351.842L519.588 351.741L519.613 351.649L519.614 351.646L519.614 351.646C519.616 351.636 519.621 351.615 519.629 351.584C519.643 351.521 519.667 351.416 519.696 351.271C519.754 350.981 519.834 350.53 519.909 349.935C520.059 348.746 520.187 346.985 520.08 344.782C519.867 340.384 518.714 334.213 514.893 327.29C507.274 313.485 488.754 296.198 444.478 284.334C400.202 272.47 375.519 278.182 362.019 286.327C355.248 290.413 351.165 295.181 348.781 298.882C347.587 300.736 346.817 302.326 346.352 303.431C346.12 303.983 345.964 304.414 345.869 304.694C345.822 304.834 345.79 304.937 345.771 304.999C345.762 305.03 345.756 305.05 345.753 305.06L345.753 305.061C345.753 305.059 345.754 305.057 343.339 304.41L345.754 305.057L345.752 305.064L345.687 305.307L345.57 305.538L345.46 305.483C345.57 305.538 345.57 305.538 345.57 305.538L345.569 305.54L345.566 305.545L345.553 305.571L345.502 305.674C345.455 305.766 345.387 305.903 345.297 306.084C345.117 306.446 344.854 306.979 344.521 307.663C343.857 309.03 342.916 310.996 341.816 313.383C339.614 318.162 336.784 324.608 334.255 331.306C331.717 338.03 329.524 344.898 328.544 350.552C328.053 353.385 327.889 355.787 328.081 357.655C328.277 359.558 328.804 360.556 329.34 361.038C329.636 361.305 330.48 361.835 332.112 362.603C333.663 363.333 335.713 364.182 338.214 365.132C343.212 367.031 349.882 369.288 357.696 371.759C373.317 376.699 393.399 382.457 413.576 387.864C433.752 393.27 453.992 398.315 469.93 401.832C477.903 403.591 484.77 404.961 490.001 405.803C492.619 406.225 494.792 406.508 496.472 406.645C498.249 406.789 499.195 406.741 499.533 406.663C500.254 406.496 501.292 405.845 502.58 404.27C503.833 402.739 505.11 400.595 506.379 397.956C508.912 392.688 511.229 385.832 513.2 378.954C515.165 372.097 516.759 365.316 517.862 360.241C518.413 357.705 518.841 355.601 519.131 354.132C519.276 353.398 519.386 352.823 519.46 352.432C519.497 352.237 519.524 352.088 519.543 351.989L519.563 351.877L519.568 351.85L519.57 351.844L519.57 351.842C519.57 351.842 519.57 351.842 519.839 351.891L519.57 351.842Z" fill="#E6E5E5" stroke="#4E4D4C" stroke-width="5"/>
<path d="M520.283 249.286C516.884 255.174 515.279 261.214 515.326 266.147C515.372 271.145 517.066 274.509 519.65 276C522.233 277.492 525.993 277.277 530.346 274.818C534.64 272.392 539.069 267.983 542.469 262.095C545.868 256.207 547.472 250.167 547.426 245.234C547.379 240.236 545.685 236.872 543.102 235.381C540.518 233.889 536.758 234.104 532.406 236.563C528.111 238.989 523.682 243.398 520.283 249.286Z" fill="#F2F2F2" stroke="#4E4D4C" stroke-width="5"/>
<path d="M537.896 248.412C532.849 239.587 516.953 248.547 515.698 264.777" stroke="#4E4D4C" stroke-width="5" stroke-linecap="round"/>
<path d="M389.621 214.276C389.621 221.074 387.991 227.107 385.484 231.356C382.944 235.661 379.796 237.727 376.813 237.727C373.829 237.727 370.681 235.661 368.141 231.356C365.634 227.107 364.004 221.074 364.004 214.276C364.004 207.477 365.634 201.444 368.141 197.195C370.681 192.89 373.829 190.824 376.813 190.824C379.796 190.824 382.944 192.89 385.484 197.195C387.991 201.444 389.621 207.477 389.621 214.276Z" fill="#F2F2F2" stroke="#4E4D4C" stroke-width="5"/>
<path d="M374.805 204.712C383.589 199.593 392.874 215.301 385.847 229.984" stroke="#4E4D4C" stroke-width="5" stroke-linecap="round"/>
<path d="M532.698 232.915C520.852 277.126 478.504 303.804 438.418 293.063C398.333 282.323 374.997 238.044 386.843 193.834C398.69 149.623 441.038 122.945 481.123 133.686C521.209 144.427 544.544 188.705 532.698 232.915Z" fill="#F2F2F2" stroke="#4E4D4C" stroke-width="5"/>
<path d="M483.522 229.055C491.827 221.714 503.11 224.547 506.704 235.267" stroke="#4E4D4C" stroke-width="5" stroke-linecap="round" stroke-linejoin="round"/>
<path d="M434.777 213.925C431.501 203.48 420.781 200.417 412.561 207.972" stroke="#4E4D4C" stroke-width="5" stroke-linecap="round" stroke-linejoin="round"/>
<path d="M436.646 190.234C430.662 181.01 419.293 180.827 413.189 190.234" stroke="#4E4D4C" stroke-width="10" stroke-linecap="round" stroke-linejoin="round"/>
<path d="M493.518 205.473C503.313 200.476 513.25 206.002 513.832 217.201" stroke="#4E4D4C" stroke-width="10" stroke-linecap="round" stroke-linejoin="round"/>
<path d="M379.473 377.19C464.49 362.273 479.501 299.911 475.209 300.032" stroke="#4E4D4C" stroke-width="5" stroke-linecap="round"/>
<path d="M417.103 388.039C462.179 371.183 483.995 315.545 487.16 303.735" stroke="#4E4D4C" stroke-width="5" stroke-linecap="round"/>
<path d="M410.506 278.289C407.632 276.287 392.976 315.639 420.066 362.355" stroke="#4E4D4C" stroke-width="5" stroke-linecap="round"/>
<path d="M391.324 278.196C388.553 288.536 381.443 334.133 398.639 370.949" stroke="#4E4D4C" stroke-width="5" stroke-linecap="round"/>
<path d="M417.013 321.365C403.811 288.732 396.829 268.35 385.42 234.984C409.232 248.47 428.747 257.258 448.662 262.577C468.399 267.848 488.413 269.681 513.243 269.406C502.928 278.705 495.296 286.88 488.269 294.408C486.307 296.509 484.392 298.561 482.479 300.572C472.938 310.603 463.336 319.761 447.857 329.628C445.173 327.82 442.485 327.106 439.881 327.24C436.874 327.394 434.275 328.663 432.201 330.079C430.666 331.127 429.319 332.327 428.235 333.349C428.186 332.2 428.079 330.877 427.803 329.578C427.356 327.47 426.401 325.078 424.214 323.393C422.381 321.981 419.987 321.295 417.013 321.365Z" fill="#F2F2F2" stroke="#4E4D4C" stroke-width="5"/>
<path d="M421.973 297.889C412.159 304.264 399.328 307.662 381.638 309.685C403.637 286.293 411.832 271.419 416.358 260.839C417.445 258.297 418.302 256.077 419.066 254.099C421.755 247.136 423.282 243.18 429.572 238.809C446.181 227.268 470.814 233.113 477.536 251.479C479.216 256.069 479.166 259.116 478.466 262.289C478.119 263.859 477.613 265.461 477.006 267.381C476.964 267.515 476.921 267.651 476.878 267.788C476.224 269.861 475.491 272.227 474.839 275.043C472.362 285.756 471.188 302.459 478.49 335.86C464.094 325.665 455.055 317.416 450.47 307.687C445.413 296.955 445.573 283.93 451.236 263.388C451.596 262.084 450.853 260.731 449.56 260.333C448.267 259.936 446.893 260.639 446.459 261.92C440.394 279.802 432.887 290.798 421.973 297.889Z" fill="#F2F2F2" stroke="#4E4D4C" stroke-width="5" stroke-linecap="round" stroke-linejoin="round"/>
<path d="M468.963 229.296C460.904 236.704 450.089 233.996 446.747 223.343" stroke="#4E4D4C" stroke-width="5" stroke-linecap="round" stroke-linejoin="round"/>
</svg>
