<svg width="151" height="172" viewBox="0 0 151 172" fill="none" xmlns="http://www.w3.org/2000/svg">
<g style="mix-blend-mode:hard-light">
<path fill-rule="evenodd" clip-rule="evenodd" d="M40.0201 153.505L67.4184 169.324C76.159 174.37 87.3355 171.375 92.3818 162.635L99.3138 150.628C96.8672 151.955 94.1629 152.868 91.2952 153.271L87.5122 159.823C84.0186 165.875 76.281 167.948 70.2299 164.454L51.266 153.505H40.0201ZM111.833 117.698L143.179 63.4058C146.673 57.3546 144.599 49.6171 138.548 46.1234L111.833 30.6997V24.2069L141.36 41.2538C150.1 46.3002 153.095 57.4767 148.049 66.2172L111.833 128.944V117.698Z" fill="#0F0F0F"/>
<path fill-rule="evenodd" clip-rule="evenodd" d="M87.9362 5.62291H18.7744C11.7872 5.62291 6.12291 11.2872 6.12291 18.2745V129.608C6.12291 136.595 11.7872 142.26 18.7745 142.26H87.9362C94.9234 142.26 100.588 136.595 100.588 129.608V18.2744C100.588 11.2872 94.9234 5.62291 87.9362 5.62291ZM18.7744 0C8.68175 0 0.5 8.18175 0.5 18.2745V129.608C0.5 139.701 8.68176 147.882 18.7745 147.882H87.9362C98.0289 147.882 106.211 139.701 106.211 129.608V18.2744C106.211 8.18175 98.0289 0 87.9362 0H18.7744Z" fill="#0F0F0F"/>
<path d="M40.5068 77.6533C40.6826 79.1572 41.3809 80.1973 42.6016 80.7734C43.2266 81.0664 43.9492 81.2129 44.7695 81.2129C46.332 81.2129 47.4893 80.7148 48.2412 79.7188C48.9932 78.7227 49.3691 77.6191 49.3691 76.4082C49.3691 74.9434 48.9199 73.8105 48.0215 73.0098C47.1328 72.209 46.0635 71.8086 44.8135 71.8086C43.9053 71.8086 43.124 71.9844 42.4697 72.3359C41.8252 72.6875 41.2734 73.1758 40.8145 73.8008L38.5293 73.6689L40.126 62.375H51.0244V64.9238H42.1035L41.21 70.7539C41.6982 70.3828 42.1621 70.1045 42.6016 69.9189C43.3828 69.5967 44.2861 69.4355 45.3115 69.4355C47.2354 69.4355 48.8662 70.0557 50.2041 71.2959C51.542 72.5361 52.2109 74.1084 52.2109 76.0127C52.2109 77.9951 51.5957 79.7432 50.3652 81.2568C49.1445 82.7705 47.1914 83.5273 44.5059 83.5273C42.7969 83.5273 41.2832 83.0488 39.9648 82.0918C38.6562 81.125 37.9238 79.6455 37.7676 77.6533H40.5068ZM54.4375 83C54.5352 81.1934 54.9062 79.6211 55.5508 78.2832C56.2051 76.9453 57.4746 75.7295 59.3594 74.6357L62.1719 73.0098C63.4316 72.2773 64.3154 71.6523 64.8232 71.1348C65.624 70.3242 66.0244 69.3965 66.0244 68.3516C66.0244 67.1309 65.6582 66.1641 64.9258 65.4512C64.1934 64.7285 63.2168 64.3672 61.9961 64.3672C60.1895 64.3672 58.9395 65.0508 58.2461 66.418C57.875 67.1504 57.6699 68.166 57.6309 69.4648H54.9502C54.9795 67.6387 55.3164 66.1494 55.9609 64.9971C57.1035 62.9658 59.1201 61.9502 62.0107 61.9502C64.4131 61.9502 66.166 62.5996 67.2695 63.8984C68.3828 65.1973 68.9395 66.6426 68.9395 68.2344C68.9395 69.9141 68.3486 71.3496 67.167 72.541C66.4834 73.2344 65.2578 74.0742 63.4902 75.0605L61.4834 76.1738C60.5264 76.7012 59.7744 77.2041 59.2275 77.6826C58.251 78.5322 57.6357 79.4746 57.3818 80.5098H68.8369V83H54.4375Z" fill="#0F0F0F"/>
</g>
</svg>
