<svg width="128" height="128" viewBox="0 0 128 128" fill="none" xmlns="http://www.w3.org/2000/svg">
<path fill-rule="evenodd" clip-rule="evenodd" d="M101.472 63.6962L95.6993 66.5654L74.9811 56.2272L101.472 42.9213V63.6962ZM60.0659 61.0282L83.3365 72.721L62.7202 83.0123L24.45 63.9163V43.143L60.0721 61.0514L60.0659 61.0282ZM62.7202 116.115L24.45 97.0188V76.1351L49.6285 88.7958L49.5805 88.8572L83.3501 105.823L62.7202 116.115ZM101.472 96.7985L95.6993 99.6677L74.8708 89.2747L101.472 75.9132V96.7985ZM112.574 33.9527H112.589V100.335H112.571C112.476 102.717 110.839 104.751 108.62 105.405L65.3512 127.146L65.3479 127.137C64.6164 127.496 63.7963 127.697 62.9268 127.697C61.9174 127.697 60.9762 127.425 60.1621 126.952L60.0698 127.146L17.2529 105.623C14.9687 104.948 13.3333 102.836 13.3333 100.333V33.9074C13.3333 30.8604 15.7714 28.3917 18.8183 28.3917C21.6085 28.3917 62.7021 50.0259 62.7021 50.0259C62.7021 50.0259 104.105 28.5233 107.059 28.5233C110.069 28.5233 112.514 30.9353 112.574 33.9527ZM58.5466 30.6303C58.5466 30.4869 58.5939 30.3452 58.5939 30.2053V4.83811C58.5939 4.6982 58.5466 4.55686 58.5466 4.41346C58.5466 1.9759 60.4962 0 62.9337 0C65.3713 0 67.3475 2.03212 67.3475 4.41425H67.3284V30.9353H67.3397C67.209 33.1587 65.3 35.0704 62.947 35.0704C60.5093 35.0704 58.5466 33.0678 58.5466 30.6303ZM45.2792 26.3843C42.8656 26.3843 40.9056 24.4241 40.8673 22.042H40.8073V12.9899H40.8673C40.907 10.5866 42.8664 8.65026 45.2792 8.65026C47.692 8.65026 49.6512 10.5866 49.6909 12.9899H49.7006V22.042H49.6911C49.6528 24.4241 47.6928 26.3843 45.2792 26.3843ZM80.6766 26.2632C78.3035 26.2632 76.3688 24.4242 76.2679 22.0421H76.2217V12.99H76.2649C76.3046 10.5865 78.2638 8.65034 80.6766 8.65034C83.0894 8.65034 85.0488 10.5865 85.0885 12.99H85.115V22.0421H85.0855C84.9845 24.4242 83.0497 26.2632 80.6766 26.2632Z" fill="#817F7E"/>
</svg>
