<svg width="48" height="49" viewBox="0 0 48 49" fill="none" xmlns="http://www.w3.org/2000/svg">
  <g clip-path="url(#clip0_217_363)">
    <path fill-rule="evenodd" clip-rule="evenodd" d="M38.0521 24.6615L35.8872 25.7374L28.1179 21.8606L38.0521 16.8709V24.6615ZM22.5247 23.661L31.2512 28.0458L23.5201 31.905L9.16873 24.744V16.954L22.527 23.6697L22.5247 23.661ZM23.5201 44.3184L9.16873 37.1574V29.326L18.6107 34.0738L18.5927 34.0969L31.2563 40.4592L23.5201 44.3184ZM38.0521 37.0748L35.8872 38.1508L28.0766 34.2534L38.0521 29.2428V37.0748ZM42.2151 13.5077H42.2208V38.401H42.214C42.1784 39.2943 41.5647 40.0572 40.7325 40.3023L24.5067 48.455L24.5054 48.4519C24.2311 48.5862 23.9236 48.6619 23.5976 48.6619C23.219 48.6619 22.8661 48.5597 22.5608 48.3823L22.5262 48.455L6.46984 40.3841C5.61328 40.131 5 39.3388 5 38.4002V13.4907C5 12.348 5.91426 11.4223 7.05685 11.4223C8.10321 11.4223 23.5133 19.5351 23.5133 19.5351C23.5133 19.5351 39.0393 11.4716 40.1472 11.4716C41.276 11.4716 42.1929 12.3761 42.2151 13.5077ZM21.955 12.2617C21.955 12.208 21.9727 12.1548 21.9727 12.1024V2.58968C21.9727 2.53722 21.955 2.48421 21.955 2.43044C21.955 1.51635 22.6861 0.775391 23.6001 0.775391C24.5142 0.775391 25.2553 1.53744 25.2553 2.43074H25.2482V12.3761H25.2524C25.2034 13.2099 24.4875 13.9268 23.6051 13.9268C22.691 13.9268 21.955 13.1758 21.955 12.2617ZM16.9797 10.6695C16.0746 10.6695 15.3396 9.93443 15.3253 9.04113H15.3027V5.64659H15.3253C15.3401 4.74537 16.0749 4.01924 16.9797 4.01924C17.8845 4.01924 18.6192 4.74537 18.6341 5.64659H18.6377V9.04113H18.6342C18.6198 9.93443 17.8848 10.6695 16.9797 10.6695ZM30.2537 10.6241C29.3638 10.6241 28.6383 9.93446 28.6005 9.04116H28.5831V5.64662H28.5993C28.6142 4.74534 29.3489 4.01927 30.2537 4.01927C31.1585 4.01927 31.8933 4.74534 31.9082 5.64662H31.9181V9.04116H31.907C31.8692 9.93446 31.1436 10.6241 30.2537 10.6241Z" fill="rgb(41, 37, 36)"/>
  </g>
</svg>
