<?xml version="1.0" encoding="UTF-8"?>
<svg width="245px" height="70px" viewBox="0 0 245 70" version="1.1" xmlns="http://www.w3.org/2000/svg" xmlns:xlink="http://www.w3.org/1999/xlink">
    <!-- Generator: Sketch 47.1 (45422) - http://www.bohemiancoding.com/sketch -->
    <title>Artboard</title>
    <desc>Created with Sketch.</desc>
    <defs></defs>
    <g id="Page-1" stroke="none" stroke-width="1" fill="none" fill-rule="evenodd">
        <g id="Artboard" fill="#F15729">
            <path d="M48.2783322,34.9163799 L45.1161449,36.4891918 L33.7676923,30.8221244 L48.2783322,23.5281843 L48.2783322,34.9163799 Z M25.5978676,33.453866 L38.3443912,39.8635074 L27.0517848,45.5048938 L6.08915901,35.0370373 L6.08915901,23.6497122 L25.6012601,33.4665759 L25.5978676,33.453866 Z M27.0517848,63.6506002 L6.08915901,53.1828308 L6.08915901,41.7350029 L19.8807562,48.6752409 L19.8544858,48.708931 L38.3518721,58.0093009 L27.0517848,63.6506002 Z M48.2783322,53.0620863 L45.1161449,54.6348982 L33.7073226,48.937797 L48.2783322,41.6133879 L48.2783322,53.0620863 Z M25.9761751,18.9013536 C25.2475371,18.490728 24.7516511,17.7132276 24.7374694,16.8298792 L24.704588,16.8298792 L24.704588,11.8677783 L24.7374694,2.54502454 C24.7400156,2.39078161 24.7569761,2.24004715 24.7870617,2.09411399 C24.9437839,0.91171473 25.9437532,-5.68434189e-14 27.1687315,-5.68434189e-14 C28.5039101,-5.68434189e-14 29.5863885,1.11394812 29.57595,2.41976413 L29.5821261,16.9578491 C29.510535,18.1766107 28.4648524,19.2245716 27.1760384,19.2245716 C26.7386119,19.2245716 26.3291076,19.106762 25.9761751,18.9013536 Z M54.3590533,18.611874 L54.3674912,18.611874 L54.3674912,55.0006137 L54.3574875,55.0006137 C54.3055557,56.3064298 53.4091445,57.4216837 52.1935744,57.7799125 L28.4929148,69.697573 L28.491088,69.6929591 C28.0904214,69.8893539 27.6412154,70 27.1649562,70 C26.6120605,70 26.0964827,69.8506146 25.6505823,69.5911925 L25.6000423,69.697573 L2.14695048,57.8995253 C0.895802278,57.5295441 0,56.3715464 0,54.999482 L0,18.5870635 C0,16.9167507 1.33543956,15.5634901 3.00439106,15.5634901 C3.86852971,15.5634901 4.62984856,15.9278998 5.1805695,16.5097714 L27.0418682,27.422737 L49.6755332,16.1289084 C50.1526623,15.8135103 50.7239994,15.6356582 51.3385695,15.6356582 C52.9873398,15.6356582 54.3266938,16.9578404 54.3590533,18.611874 Z M19.9150469,12.0827678 C19.8940828,13.3885839 18.8204771,14.4630963 17.4984336,14.4630963 C16.1763902,14.4630963 15.1027845,13.3885839 15.0818204,12.0827678 L15.048939,12.0827678 L15.048939,7.12066698 L15.0818204,7.12066698 C15.1035674,5.80327272 16.1768252,4.74181841 17.4984336,4.74181841 C18.8200421,4.74181841 19.8932129,5.80327272 19.9202662,7.12066698 L19.9150469,12.0827678 Z M36.8874468,14.3967174 C35.5875853,14.3967174 34.5278107,13.3886274 34.4725733,12.0828114 L34.4472598,12.0828114 L34.4472598,7.1207105 L34.4709205,7.1207105 C34.4926675,5.8032292 35.5658383,4.74186194 36.8874468,4.74186194 C38.2090552,4.74186194 39.282313,5.8032292 39.30406,7.1207105 L39.318587,7.1207105 L39.318587,12.0828114 L39.3024072,12.0828114 C39.2470829,13.3886274 38.1873083,14.3967174 36.8874468,14.3967174 Z" id="Combined-Shape"></path>
            <path d="M99.8180151,15.3185083 L99.8180151,12.3886459 L123.452286,12.3886459 L123.452286,15.3185083 C118.863948,15.8036566 118.431086,16.3581118 118.431086,19.9621571 L118.431086,53.5067824 C118.431086,57.1106544 118.863948,57.6651962 123.452286,58.1502579 L123.452286,61.0767417 L99.8180151,61.0767417 L99.8180151,58.1502579 C104.406353,57.6651962 104.839216,57.1106544 104.839216,53.5067824 L104.839216,38.5519998 L87.265014,38.5519998 L87.265014,53.5067824 C87.265014,57.1106544 87.6978761,57.6651962 92.2862144,58.1502579 L92.2862144,61.0767417 L68.6519435,61.0767417 L68.6519435,58.1502579 C73.2402818,57.6651962 73.6731439,57.1106544 73.6731439,53.5067824 L73.6731439,19.9621571 C73.6731439,16.3581118 73.2402818,15.8036566 68.6519435,15.3185083 L68.6519435,12.3886459 L92.2862144,12.3886459 L92.2862144,15.3185083 C87.6978761,15.8036566 87.265014,16.3581118 87.265014,19.9621571 L87.265014,34.2203187 L104.839216,34.2203187 L104.839216,19.9621571 C104.839216,16.3581118 104.406353,15.8036566 99.8180151,15.3185083 Z M163.881607,53.0909323 C163.881607,55.4473668 164.002808,56.4869703 166.219062,56.5562772 L167.863938,56.6255841 L167.863938,59.3285531 L153.271031,61.769802 L150.847003,61.769802 L151.062655,55.0392359 C148.569283,58.2274398 144.906577,61.7542946 138.742534,61.7542946 C132.578578,61.7542946 128.300342,58.081029 128.300342,50.1107357 L128.300342,33.1304591 C128.300342,31.1204724 127.780907,29.6651142 125.564653,29.1105724 L124.491155,28.7640379 L124.491155,26.2689895 L139.142325,23.0445728 L141.427837,23.0445728 L141.026488,31.8828483 L141.026488,48.8631249 C141.026488,52.3978633 142.411646,54.4077634 145.736027,54.4077634 C147.813765,54.4077634 149.164295,53.8533082 151.068888,53.0215388 L151.068888,33.1304591 C151.068888,31.1204724 150.558111,29.6651142 148.411115,29.1105724 L147.346274,28.7640379 L147.346274,26.2689895 L161.928273,23.0445728 L164.213785,23.0445728 L163.881607,31.8828483 L163.881607,53.0909323 Z M187.587447,35.902709 C195.8984,38.6749849 200.400165,41.5163945 200.400165,49.0708463 C200.400165,57.17984 194.374812,61.7538354 185.024817,61.7538354 C179.276408,61.7538354 174.8439,60.3672643 171.865809,58.2187504 L171.450261,48.8613662 L174.636126,48.8613662 C176.021285,54.5791853 179.623131,58.8425125 185.025336,58.8425125 C188.280546,58.8425125 190.91278,57.2493202 190.91278,54.1305098 C190.91278,50.595858 188.212587,49.4176407 183.503047,47.8928023 C175.676813,45.4670609 171.453984,42.2097233 171.453984,35.1403331 C171.453984,27.3779606 177.413976,23.0115394 185.724928,23.0115394 C190.434554,23.0115394 194.61479,24.2591501 197.644825,26.1997433 L197.644825,34.4801849 L194.651757,34.4801849 C193.820661,29.9752366 190.773312,25.9043226 185.925257,25.9043226 C182.947079,25.9043226 180.938599,27.5858812 180.938599,30.2195434 C180.938599,33.1304331 183.016337,34.308737 187.587447,35.902709 Z M218.768522,55.6552616 C218.768522,57.8731689 219.893963,58.1503099 222.664281,58.3582306 L222.664281,61.076707 L202.060044,61.076707 L202.060044,58.3582306 C204.830362,58.1503099 205.955803,57.8731689 205.955803,55.6552616 L205.955803,14.0016426 L202.146617,12.0610495 L202.146617,9.98184254 L216.605943,6.75742574 L218.768522,6.75742574 L218.768522,55.6552616 Z M229.902549,36.4571988 L245,59.189948 L245,61.0767417 L231.704294,61.0767417 L219.233191,41.4550925 L229.825153,31.81355 C231.62586,30.219578 232.101575,29.3878086 232.101575,28.4869056 C232.101575,27.1700745 231.148413,26.7541465 227.858661,26.407612 L227.858661,23.7376504 L243.614841,23.7376504 L243.614841,26.407612 C241.277386,26.7541465 239.667485,27.1700745 237.866865,28.9720539 L229.902549,36.4571988 Z" id="Combined-Shape"></path>
        </g>
    </g>
</svg>